  0
SECTION
  2
HEADER
  9
$ACADVER
  1
AC1014
  9
$HANDSEED
  5
FFFF
  9
$MEASUREMENT
 70
     1
  0
ENDSEC
  0
SECTION
  2
TABLES
  0
TABLE
  2
VPORT
  5
8
330
0
100
AcDbSymbolTable
 70
     4
  0
VPORT
  5
2E
330
8
100
AcDbSymbolTableRecord
100
AcDbViewportTableRecord
  2
*ACTIVE
 70
     0
 10
0.0
 20
0.0
 11
1.0
 21
1.0
 12
210.0
 22
148.5
 13
0.0
 23
0.0
 14
10.0
 24
10.0
 15
10.0
 25
10.0
 16
0.0
 26
0.0
 36
1.0
 17
0.0
 27
0.0
 37
0.0
 40
341.0
 41
1.24
 42
50.0
 43
0.0
 44
0.0
 50
0.0
 51
0.0
 71
     0
 72
   100
 73
     1
 74
     3
 75
     0
 76
     0
 77
     0
 78
     0
  0
ENDTAB
  0
TABLE
  2
LTYPE
  5
5
330
0
100
AcDbSymbolTable
 70
     1
  0
LTYPE
  5
14
330
5
100
AcDbSymbolTableRecord
100
AcDbLinetypeTableRecord
  2
BYBLOCK
 70
     0
  3

 72
    65
 73
     0
 40
0.0
  0
LTYPE
  5
15
330
5
100
AcDbSymbolTableRecord
100
AcDbLinetypeTableRecord
  2
BYLAYER
 70
     0
  3

 72
    65
 73
     0
 40
0.0
  0
LTYPE
  5
16
330
5
100
AcDbSymbolTableRecord
100
AcDbLinetypeTableRecord
  2
CONTINUOUS
 70
     0
  3
Solid line
 72
    65
 73
     0
 40
0.0
  0
ENDTAB
  0
TABLE
  2
LAYER
  5
2
100
AcDbSymbolTable
 70
1
  0
LAYER
  5
50
100
AcDbSymbolTableRecord
100
AcDbLayerTableRecord
  2
0
 70
0
  6
CONTINUOUS
  0
ENDTAB
  0
TABLE
  2
STYLE
  5
3
330
0
100
AcDbSymbolTable
 70
     1
  0
STYLE
  5
11
330
3
100
AcDbSymbolTableRecord
100
AcDbTextStyleTableRecord
  2
STANDARD
 70
     0
 40
0.0
 41
1.0
 50
0.0
 71
     0
 42
2.5
  3
txt
  4

  0
ENDTAB
  0
TABLE
  2
VIEW
  5
6
330
0
100
AcDbSymbolTable
 70
     0
  0
ENDTAB
  0
TABLE
  2
UCS
  5
7
330
0
100
AcDbSymbolTable
 70
     0
  0
ENDTAB
  0
TABLE
  2
APPID
  5
9
330
0
100
AcDbSymbolTable
 70
     2
  0
APPID
  5
12
330
9
100
AcDbSymbolTableRecord
100
AcDbRegAppTableRecord
  2
ACAD
 70
     0
  0
ENDTAB
  0
TABLE
  2
DIMSTYLE
  5
A
330
0
100
AcDbSymbolTable
 70
     1
  0
DIMSTYLE
105
27
330
A
100
AcDbSymbolTableRecord
100
AcDbDimStyleTableRecord
  2
ISO-25
 70
     0
  3

  4

  5

  6

  7

 40
1.0
 41
2.5
 42
0.625
 43
3.75
 44
1.25
 45
0.0
 46
0.0
 47
0.0
 48
0.0
140
2.5
141
2.5
142
0.0
143
0.03937007874016
144
1.0
145
0.0
146
1.0
147
0.625
 71
     0
 72
     0
 73
     0
 74
     0
 75
     0
 76
     0
 77
     1
 78
     8
170
     0
171
     3
172
     1
173
     0
174
     0
175
     0
176
     0
177
     0
178
     0
270
     2
271
     2
272
     2
273
     2
274
     3
340
11
275
     0
280
     0
281
     0
282
     0
283
     0
284
     8
285
     0
286
     0
287
     3
288
     0
  0
ENDTAB
  0
TABLE
  2
BLOCK_RECORD
  5
1
330
0
100
AcDbSymbolTable
 70
     1
  0
BLOCK_RECORD
  5
1F
330
1
100
AcDbSymbolTableRecord
100
AcDbBlockTableRecord
  2
*MODEL_SPACE
  0
BLOCK_RECORD
  5
1B
330
1
100
AcDbSymbolTableRecord
100
AcDbBlockTableRecord
  2
*PAPER_SPACE
  0
ENDTAB
  0
ENDSEC
  0
SECTION
  2
BLOCKS
  0
BLOCK
  5
20
330
1F
100
AcDbEntity
  8
0
100
AcDbBlockBegin
  2
*MODEL_SPACE
 70
     0
 10
0.0
 20
0.0
 30
0.0
  3
*MODEL_SPACE
  1

  0
ENDBLK
  5
21
330
1F
100
AcDbEntity
  8
0
100
AcDbBlockEnd
  0
BLOCK
  5
1C
330
1B
100
AcDbEntity
 67
     1
  8
0
100
AcDbBlockBegin
  2
*PAPER_SPACE
  1

  0
ENDBLK
  5
1D
330
1B
100
AcDbEntity
 67
     1
  8
0
100
AcDbBlockEnd
  0
ENDSEC
  0
SECTION
  2
ENTITIES
  0
SPLINE
  5
100
100
AcDbEntity
  8
0
 62
7
100
AcDbSpline
 70
8
 71
3
 72
8
 73
4
 74
0
 40
0
 40
0
 40
0
 40
0
 40
1
 40
1
 40
1
 40
1
 10
251.322520
 20
-284.507493
 30
0.0
 10
251.304661
 20
-284.507493
 30
0.0
 10
251.286803
 20
-284.507493
 30
0.0
 10
251.268945
 20
-284.507493
 30
0.0
  0
SPLINE
  5
101
100
AcDbEntity
  8
0
 62
7
100
AcDbSpline
 70
8
 71
3
 72
8
 73
4
 74
0
 40
0
 40
0
 40
0
 40
0
 40
1
 40
1
 40
1
 40
1
 10
251.268945
 20
-284.507493
 30
0.0
 10
251.215937
 20
-284.507493
 30
0.0
 10
251.162646
 20
-284.507493
 30
0.0
 10
251.109354
 20
-284.507493
 30
0.0
  0
SPLINE
  5
102
100
AcDbEntity
  8
0
 62
7
100
AcDbSpline
 70
8
 71
3
 72
8
 73
4
 74
0
 40
0
 40
0
 40
0
 40
0
 40
1
 40
1
 40
1
 40
1
 10
251.109354
 20
-284.507493
 30
0.0
 10
251.021197
 20
-284.507493
 30
0.0
 10
250.933323
 20
-284.507493
 30
0.0
 10
250.845165
 20
-284.507493
 30
0.0
  0
SPLINE
  5
103
100
AcDbEntity
  8
0
 62
7
100
AcDbSpline
 70
8
 71
3
 72
8
 73
4
 74
0
 40
0
 40
0
 40
0
 40
0
 40
1
 40
1
 40
1
 40
1
 10
250.845165
 20
-284.507493
 30
0.0
 10
250.723559
 20
-284.507493
 30
0.0
 10
250.601953
 20
-284.507493
 30
0.0
 10
250.480346
 20
-284.507493
 30
0.0
  0
SPLINE
  5
104
100
AcDbEntity
  8
0
 62
7
100
AcDbSpline
 70
8
 71
3
 72
8
 73
4
 74
0
 40
0
 40
0
 40
0
 40
0
 40
1
 40
1
 40
1
 40
1
 10
250.480346
 20
-284.507493
 30
0.0
 10
250.326709
 20
-284.507493
 30
0.0
 10
250.172787
 20
-284.507493
 30
0.0
 10
250.019150
 20
-284.507493
 30
0.0
  0
SPLINE
  5
105
100
AcDbEntity
  8
0
 62
7
100
AcDbSpline
 70
8
 71
3
 72
8
 73
4
 74
0
 40
0
 40
0
 40
0
 40
0
 40
1
 40
1
 40
1
 40
1
 10
250.019150
 20
-284.507493
 30
0.0
 10
249.835181
 20
-284.507493
 30
0.0
 10
249.651213
 20
-284.507493
 30
0.0
 10
249.467244
 20
-284.507493
 30
0.0
  0
SPLINE
  5
106
100
AcDbEntity
  8
0
 62
7
100
AcDbSpline
 70
8
 71
3
 72
8
 73
4
 74
0
 40
0
 40
0
 40
0
 40
0
 40
1
 40
1
 40
1
 40
1
 10
249.467244
 20
-284.507493
 30
0.0
 10
249.255496
 20
-284.507493
 30
0.0
 10
249.043465
 20
-284.507493
 30
0.0
 10
248.831717
 20
-284.507493
 30
0.0
  0
SPLINE
  5
107
100
AcDbEntity
  8
0
 62
7
100
AcDbSpline
 70
8
 71
3
 72
8
 73
4
 74
0
 40
0
 40
0
 40
0
 40
0
 40
1
 40
1
 40
1
 40
1
 10
248.831717
 20
-284.507493
 30
0.0
 10
248.594740
 20
-284.507493
 30
0.0
 10
248.357764
 20
-284.507493
 30
0.0
 10
248.120787
 20
-284.507493
 30
0.0
  0
SPLINE
  5
108
100
AcDbEntity
  8
0
 62
7
100
AcDbSpline
 70
8
 71
3
 72
8
 73
4
 74
0
 40
0
 40
0
 40
0
 40
0
 40
1
 40
1
 40
1
 40
1
 10
248.120787
 20
-284.507493
 30
0.0
 10
247.861417
 20
-284.507493
 30
0.0
 10
247.602331
 20
-284.507493
 30
0.0
 10
247.342961
 20
-284.507493
 30
0.0
  0
SPLINE
  5
109
100
AcDbEntity
  8
0
 62
7
100
AcDbSpline
 70
8
 71
3
 72
8
 73
4
 74
0
 40
0
 40
0
 40
0
 40
0
 40
1
 40
1
 40
1
 40
1
 10
247.342961
 20
-284.507493
 30
0.0
 10
247.064598
 20
-284.507493
 30
0.0
 10
246.786520
 20
-284.507493
 30
0.0
 10
246.508441
 20
-284.507493
 30
0.0
  0
SPLINE
  5
10a
100
AcDbEntity
  8
0
 62
7
100
AcDbSpline
 70
8
 71
3
 72
8
 73
4
 74
0
 40
0
 40
0
 40
0
 40
0
 40
1
 40
1
 40
1
 40
1
 10
246.508441
 20
-284.507493
 30
0.0
 10
246.214488
 20
-284.507493
 30
0.0
 10
245.920819
 20
-284.507493
 30
0.0
 10
245.627150
 20
-284.507493
 30
0.0
  0
SPLINE
  5
10b
100
AcDbEntity
  8
0
 62
7
100
AcDbSpline
 70
8
 71
3
 72
8
 73
4
 74
0
 40
0
 40
0
 40
0
 40
0
 40
1
 40
1
 40
1
 40
1
 10
245.627150
 20
-284.507493
 30
0.0
 10
245.321858
 20
-284.507493
 30
0.0
 10
245.016283
 20
-284.507493
 30
0.0
 10
244.710992
 20
-284.507493
 30
0.0
  0
SPLINE
  5
10c
100
AcDbEntity
  8
0
 62
7
100
AcDbSpline
 70
8
 71
3
 72
8
 73
4
 74
0
 40
0
 40
0
 40
0
 40
0
 40
1
 40
1
 40
1
 40
1
 10
244.710992
 20
-284.507493
 30
0.0
 10
244.086236
 20
-284.507493
 30
0.0
 10
243.455528
 20
-284.507493
 30
0.0
 10
242.818583
 20
-284.507493
 30
0.0
  0
LWPOLYLINE
  5
10d
100
AcDbEntity
  8
0
 62
7
100
AcDbPolyline
 90
32
 70
0
 10
619.705134
 20
-276.003556
 30
0.0
 10
619.705134
 20
-284.507493
 30
0.0
 10
582.976063
 20
-284.507493
 30
0.0
 10
582.023906
 20
-284.507493
 30
0.0
 10
581.083654
 20
-284.507493
 30
0.0
 10
580.167496
 20
-284.507493
 30
0.0
 10
579.286205
 20
-284.507493
 30
0.0
 10
578.451685
 20
-284.507493
 30
0.0
 10
577.673858
 20
-284.507493
 30
0.0
 10
576.962929
 20
-284.507493
 30
0.0
 10
576.327402
 20
-284.507493
 30
0.0
 10
575.775496
 20
-284.507493
 30
0.0
 10
575.314299
 20
-284.507493
 30
0.0
 10
574.949480
 20
-284.507493
 30
0.0
 10
574.685291
 20
-284.507493
 30
0.0
 10
574.525701
 20
-284.507493
 30
0.0
 10
574.472126
 20
-284.507493
 30
0.0
 10
574.472126
 20
-284.507493
 30
0.0
 10
556.648157
 20
-284.507493
 30
0.0
 10
536.472000
 20
-284.507493
 30
0.0
 10
514.274457
 20
-284.507493
 30
0.0
 10
490.418079
 20
-284.507493
 30
0.0
 10
465.293197
 20
-284.507493
 30
0.0
 10
439.311402
 20
-284.507493
 30
0.0
 10
412.897323
 20
-284.507493
 30
0.0
 10
386.483244
 20
-284.507493
 30
0.0
 10
360.501449
 20
-284.507493
 30
0.0
 10
335.376567
 20
-284.507493
 30
0.0
 10
311.520189
 20
-284.507493
 30
0.0
 10
289.322646
 20
-284.507493
 30
0.0
 10
269.146488
 20
-284.507493
 30
0.0
 10
251.322520
 20
-284.507493
 30
0.0
  0
SPLINE
  5
10e
100
AcDbEntity
  8
0
 62
7
100
AcDbSpline
 70
8
 71
3
 72
8
 73
4
 74
0
 40
0
 40
0
 40
0
 40
0
 40
1
 40
1
 40
1
 40
1
 10
242.818583
 20
-276.003556
 30
0.0
 10
243.455528
 20
-276.003556
 30
0.0
 10
244.086236
 20
-276.003556
 30
0.0
 10
244.710992
 20
-276.003556
 30
0.0
  0
SPLINE
  5
10f
100
AcDbEntity
  8
0
 62
7
100
AcDbSpline
 70
8
 71
3
 72
8
 73
4
 74
0
 40
0
 40
0
 40
0
 40
0
 40
1
 40
1
 40
1
 40
1
 10
244.710992
 20
-276.003556
 30
0.0
 10
245.016283
 20
-276.003556
 30
0.0
 10
245.321858
 20
-276.003556
 30
0.0
 10
245.627150
 20
-276.003556
 30
0.0
  0
SPLINE
  5
110
100
AcDbEntity
  8
0
 62
7
100
AcDbSpline
 70
8
 71
3
 72
8
 73
4
 74
0
 40
0
 40
0
 40
0
 40
0
 40
1
 40
1
 40
1
 40
1
 10
245.627150
 20
-276.003556
 30
0.0
 10
245.920819
 20
-276.003556
 30
0.0
 10
246.214488
 20
-276.003556
 30
0.0
 10
246.508441
 20
-276.003556
 30
0.0
  0
SPLINE
  5
111
100
AcDbEntity
  8
0
 62
7
100
AcDbSpline
 70
8
 71
3
 72
8
 73
4
 74
0
 40
0
 40
0
 40
0
 40
0
 40
1
 40
1
 40
1
 40
1
 10
246.508441
 20
-276.003556
 30
0.0
 10
246.786520
 20
-276.003556
 30
0.0
 10
247.064598
 20
-276.003556
 30
0.0
 10
247.342961
 20
-276.003556
 30
0.0
  0
SPLINE
  5
112
100
AcDbEntity
  8
0
 62
7
100
AcDbSpline
 70
8
 71
3
 72
8
 73
4
 74
0
 40
0
 40
0
 40
0
 40
0
 40
1
 40
1
 40
1
 40
1
 10
247.342961
 20
-276.003556
 30
0.0
 10
247.602331
 20
-276.003556
 30
0.0
 10
247.861417
 20
-276.003556
 30
0.0
 10
248.120787
 20
-276.003556
 30
0.0
  0
SPLINE
  5
113
100
AcDbEntity
  8
0
 62
7
100
AcDbSpline
 70
8
 71
3
 72
8
 73
4
 74
0
 40
0
 40
0
 40
0
 40
0
 40
1
 40
1
 40
1
 40
1
 10
248.120787
 20
-276.003556
 30
0.0
 10
248.357764
 20
-276.003556
 30
0.0
 10
248.594740
 20
-276.003556
 30
0.0
 10
248.831717
 20
-276.003556
 30
0.0
  0
SPLINE
  5
114
100
AcDbEntity
  8
0
 62
7
100
AcDbSpline
 70
8
 71
3
 72
8
 73
4
 74
0
 40
0
 40
0
 40
0
 40
0
 40
1
 40
1
 40
1
 40
1
 10
248.831717
 20
-276.003556
 30
0.0
 10
249.043465
 20
-276.003556
 30
0.0
 10
249.255496
 20
-276.003556
 30
0.0
 10
249.467244
 20
-276.003556
 30
0.0
  0
SPLINE
  5
115
100
AcDbEntity
  8
0
 62
7
100
AcDbSpline
 70
8
 71
3
 72
8
 73
4
 74
0
 40
0
 40
0
 40
0
 40
0
 40
1
 40
1
 40
1
 40
1
 10
249.467244
 20
-276.003556
 30
0.0
 10
249.651213
 20
-276.003556
 30
0.0
 10
249.835181
 20
-276.003556
 30
0.0
 10
250.019150
 20
-276.003556
 30
0.0
  0
SPLINE
  5
116
100
AcDbEntity
  8
0
 62
7
100
AcDbSpline
 70
8
 71
3
 72
8
 73
4
 74
0
 40
0
 40
0
 40
0
 40
0
 40
1
 40
1
 40
1
 40
1
 10
250.019150
 20
-276.003556
 30
0.0
 10
250.172787
 20
-276.003556
 30
0.0
 10
250.326709
 20
-276.003556
 30
0.0
 10
250.480346
 20
-276.003556
 30
0.0
  0
SPLINE
  5
117
100
AcDbEntity
  8
0
 62
7
100
AcDbSpline
 70
8
 71
3
 72
8
 73
4
 74
0
 40
0
 40
0
 40
0
 40
0
 40
1
 40
1
 40
1
 40
1
 10
250.480346
 20
-276.003556
 30
0.0
 10
250.601953
 20
-276.003556
 30
0.0
 10
250.723559
 20
-276.003556
 30
0.0
 10
250.845165
 20
-276.003556
 30
0.0
  0
SPLINE
  5
118
100
AcDbEntity
  8
0
 62
7
100
AcDbSpline
 70
8
 71
3
 72
8
 73
4
 74
0
 40
0
 40
0
 40
0
 40
0
 40
1
 40
1
 40
1
 40
1
 10
250.845165
 20
-276.003556
 30
0.0
 10
250.933323
 20
-276.003556
 30
0.0
 10
251.021197
 20
-276.003556
 30
0.0
 10
251.109354
 20
-276.003556
 30
0.0
  0
SPLINE
  5
119
100
AcDbEntity
  8
0
 62
7
100
AcDbSpline
 70
8
 71
3
 72
8
 73
4
 74
0
 40
0
 40
0
 40
0
 40
0
 40
1
 40
1
 40
1
 40
1
 10
251.109354
 20
-276.003556
 30
0.0
 10
251.162646
 20
-276.003556
 30
0.0
 10
251.215937
 20
-276.003556
 30
0.0
 10
251.268945
 20
-276.003556
 30
0.0
  0
SPLINE
  5
11a
100
AcDbEntity
  8
0
 62
7
100
AcDbSpline
 70
8
 71
3
 72
8
 73
4
 74
0
 40
0
 40
0
 40
0
 40
0
 40
1
 40
1
 40
1
 40
1
 10
251.268945
 20
-276.003556
 30
0.0
 10
251.286803
 20
-276.003556
 30
0.0
 10
251.304661
 20
-276.003556
 30
0.0
 10
251.322520
 20
-276.003556
 30
0.0
  0
LWPOLYLINE
  5
11b
100
AcDbEntity
  8
0
 62
7
100
AcDbPolyline
 90
4
 70
0
 10
242.818583
 20
-284.507493
 30
0.0
 10
206.089512
 20
-284.507493
 30
0.0
 10
206.089512
 20
-276.003556
 30
0.0
 10
242.818583
 20
-276.003556
 30
0.0
  0
SPLINE
  5
11c
100
AcDbEntity
  8
0
 62
7
100
AcDbSpline
 70
8
 71
3
 72
8
 73
4
 74
0
 40
0
 40
0
 40
0
 40
0
 40
1
 40
1
 40
1
 40
1
 10
574.472126
 20
-276.003556
 30
0.0
 10
574.489984
 20
-276.003556
 30
0.0
 10
574.507843
 20
-276.003556
 30
0.0
 10
574.525701
 20
-276.003556
 30
0.0
  0
SPLINE
  5
11d
100
AcDbEntity
  8
0
 62
7
100
AcDbSpline
 70
8
 71
3
 72
8
 73
4
 74
0
 40
0
 40
0
 40
0
 40
0
 40
1
 40
1
 40
1
 40
1
 10
574.525701
 20
-276.003556
 30
0.0
 10
574.578709
 20
-276.003556
 30
0.0
 10
574.632000
 20
-276.003556
 30
0.0
 10
574.685291
 20
-276.003556
 30
0.0
  0
SPLINE
  5
11e
100
AcDbEntity
  8
0
 62
7
100
AcDbSpline
 70
8
 71
3
 72
8
 73
4
 74
0
 40
0
 40
0
 40
0
 40
0
 40
1
 40
1
 40
1
 40
1
 10
574.685291
 20
-276.003556
 30
0.0
 10
574.773449
 20
-276.003556
 30
0.0
 10
574.861323
 20
-276.003556
 30
0.0
 10
574.949480
 20
-276.003556
 30
0.0
  0
SPLINE
  5
11f
100
AcDbEntity
  8
0
 62
7
100
AcDbSpline
 70
8
 71
3
 72
8
 73
4
 74
0
 40
0
 40
0
 40
0
 40
0
 40
1
 40
1
 40
1
 40
1
 10
574.949480
 20
-276.003556
 30
0.0
 10
575.071087
 20
-276.003556
 30
0.0
 10
575.192693
 20
-276.003556
 30
0.0
 10
575.314299
 20
-276.003556
 30
0.0
  0
SPLINE
  5
120
100
AcDbEntity
  8
0
 62
7
100
AcDbSpline
 70
8
 71
3
 72
8
 73
4
 74
0
 40
0
 40
0
 40
0
 40
0
 40
1
 40
1
 40
1
 40
1
 10
575.314299
 20
-276.003556
 30
0.0
 10
575.467937
 20
-276.003556
 30
0.0
 10
575.621858
 20
-276.003556
 30
0.0
 10
575.775496
 20
-276.003556
 30
0.0
  0
SPLINE
  5
121
100
AcDbEntity
  8
0
 62
7
100
AcDbSpline
 70
8
 71
3
 72
8
 73
4
 74
0
 40
0
 40
0
 40
0
 40
0
 40
1
 40
1
 40
1
 40
1
 10
575.775496
 20
-276.003556
 30
0.0
 10
575.959465
 20
-276.003556
 30
0.0
 10
576.143433
 20
-276.003556
 30
0.0
 10
576.327402
 20
-276.003556
 30
0.0
  0
SPLINE
  5
122
100
AcDbEntity
  8
0
 62
7
100
AcDbSpline
 70
8
 71
3
 72
8
 73
4
 74
0
 40
0
 40
0
 40
0
 40
0
 40
1
 40
1
 40
1
 40
1
 10
576.327402
 20
-276.003556
 30
0.0
 10
576.539150
 20
-276.003556
 30
0.0
 10
576.751181
 20
-276.003556
 30
0.0
 10
576.962929
 20
-276.003556
 30
0.0
  0
SPLINE
  5
123
100
AcDbEntity
  8
0
 62
7
100
AcDbSpline
 70
8
 71
3
 72
8
 73
4
 74
0
 40
0
 40
0
 40
0
 40
0
 40
1
 40
1
 40
1
 40
1
 10
576.962929
 20
-276.003556
 30
0.0
 10
577.199906
 20
-276.003556
 30
0.0
 10
577.436882
 20
-276.003556
 30
0.0
 10
577.673858
 20
-276.003556
 30
0.0
  0
SPLINE
  5
124
100
AcDbEntity
  8
0
 62
7
100
AcDbSpline
 70
8
 71
3
 72
8
 73
4
 74
0
 40
0
 40
0
 40
0
 40
0
 40
1
 40
1
 40
1
 40
1
 10
577.673858
 20
-276.003556
 30
0.0
 10
577.933228
 20
-276.003556
 30
0.0
 10
578.192315
 20
-276.003556
 30
0.0
 10
578.451685
 20
-276.003556
 30
0.0
  0
SPLINE
  5
125
100
AcDbEntity
  8
0
 62
7
100
AcDbSpline
 70
8
 71
3
 72
8
 73
4
 74
0
 40
0
 40
0
 40
0
 40
0
 40
1
 40
1
 40
1
 40
1
 10
578.451685
 20
-276.003556
 30
0.0
 10
578.730047
 20
-276.003556
 30
0.0
 10
579.008126
 20
-276.003556
 30
0.0
 10
579.286205
 20
-276.003556
 30
0.0
  0
SPLINE
  5
126
100
AcDbEntity
  8
0
 62
7
100
AcDbSpline
 70
8
 71
3
 72
8
 73
4
 74
0
 40
0
 40
0
 40
0
 40
0
 40
1
 40
1
 40
1
 40
1
 10
579.286205
 20
-276.003556
 30
0.0
 10
579.580157
 20
-276.003556
 30
0.0
 10
579.873827
 20
-276.003556
 30
0.0
 10
580.167496
 20
-276.003556
 30
0.0
  0
SPLINE
  5
127
100
AcDbEntity
  8
0
 62
7
100
AcDbSpline
 70
8
 71
3
 72
8
 73
4
 74
0
 40
0
 40
0
 40
0
 40
0
 40
1
 40
1
 40
1
 40
1
 10
580.167496
 20
-276.003556
 30
0.0
 10
580.472787
 20
-276.003556
 30
0.0
 10
580.778362
 20
-276.003556
 30
0.0
 10
581.083654
 20
-276.003556
 30
0.0
  0
SPLINE
  5
128
100
AcDbEntity
  8
0
 62
7
100
AcDbSpline
 70
8
 71
3
 72
8
 73
4
 74
0
 40
0
 40
0
 40
0
 40
0
 40
1
 40
1
 40
1
 40
1
 10
581.083654
 20
-276.003556
 30
0.0
 10
581.708409
 20
-276.003556
 30
0.0
 10
582.339118
 20
-276.003556
 30
0.0
 10
582.976063
 20
-276.003556
 30
0.0
  0
LWPOLYLINE
  5
129
100
AcDbEntity
  8
0
 62
7
100
AcDbPolyline
 90
17
 70
0
 10
251.322520
 20
-276.003556
 30
0.0
 10
251.322520
 20
-276.003556
 30
0.0
 10
269.146488
 20
-276.003556
 30
0.0
 10
289.322646
 20
-276.003556
 30
0.0
 10
311.520189
 20
-276.003556
 30
0.0
 10
335.376567
 20
-276.003556
 30
0.0
 10
360.501449
 20
-276.003556
 30
0.0
 10
386.483244
 20
-276.003556
 30
0.0
 10
412.897323
 20
-276.003556
 30
0.0
 10
439.311402
 20
-276.003556
 30
0.0
 10
465.293197
 20
-276.003556
 30
0.0
 10
490.418079
 20
-276.003556
 30
0.0
 10
514.274457
 20
-276.003556
 30
0.0
 10
536.472000
 20
-276.003556
 30
0.0
 10
556.648157
 20
-276.003556
 30
0.0
 10
574.472126
 20
-276.003556
 30
0.0
 10
574.472126
 20
-276.003556
 30
0.0
  0
LWPOLYLINE
  5
12a
100
AcDbEntity
  8
0
 62
7
100
AcDbPolyline
 90
2
 70
0
 10
582.976063
 20
-276.003556
 30
0.0
 10
619.705134
 20
-276.003556
 30
0.0
  0
LWPOLYLINE
  5
12b
100
AcDbEntity
  8
0
 62
7
100
AcDbPolyline
 90
31
 70
1
 10
251.322520
 20
-276.003556
 30
0.0
 10
269.146488
 20
-276.003556
 30
0.0
 10
289.322646
 20
-276.003556
 30
0.0
 10
311.520189
 20
-276.003556
 30
0.0
 10
335.376567
 20
-276.003556
 30
0.0
 10
360.501449
 20
-276.003556
 30
0.0
 10
386.483244
 20
-276.003556
 30
0.0
 10
412.897323
 20
-276.003556
 30
0.0
 10
439.311402
 20
-276.003556
 30
0.0
 10
465.293197
 20
-276.003556
 30
0.0
 10
490.418079
 20
-276.003556
 30
0.0
 10
514.274457
 20
-276.003556
 30
0.0
 10
536.472000
 20
-276.003556
 30
0.0
 10
556.648157
 20
-276.003556
 30
0.0
 10
574.472126
 20
-276.003556
 30
0.0
 10
574.472126
 20
-276.003556
 30
0.0
 10
574.472126
 20
-284.507493
 30
0.0
 10
556.648157
 20
-284.507493
 30
0.0
 10
536.472000
 20
-284.507493
 30
0.0
 10
514.274457
 20
-284.507493
 30
0.0
 10
490.418079
 20
-284.507493
 30
0.0
 10
465.293197
 20
-284.507493
 30
0.0
 10
439.311402
 20
-284.507493
 30
0.0
 10
412.897323
 20
-284.507493
 30
0.0
 10
386.483244
 20
-284.507493
 30
0.0
 10
360.501449
 20
-284.507493
 30
0.0
 10
335.376567
 20
-284.507493
 30
0.0
 10
311.520189
 20
-284.507493
 30
0.0
 10
289.322646
 20
-284.507493
 30
0.0
 10
269.146488
 20
-284.507493
 30
0.0
 10
251.322520
 20
-284.507493
 30
0.0
  0
SPLINE
  5
12c
100
AcDbEntity
  8
0
 62
7
100
AcDbSpline
 70
8
 71
3
 72
8
 73
4
 74
0
 40
0
 40
0
 40
0
 40
0
 40
1
 40
1
 40
1
 40
1
 10
574.472126
 20
-276.003556
 30
0.0
 10
574.489984
 20
-276.003556
 30
0.0
 10
574.507843
 20
-276.003556
 30
0.0
 10
574.525701
 20
-276.003556
 30
0.0
  0
SPLINE
  5
12d
100
AcDbEntity
  8
0
 62
7
100
AcDbSpline
 70
8
 71
3
 72
8
 73
4
 74
0
 40
0
 40
0
 40
0
 40
0
 40
1
 40
1
 40
1
 40
1
 10
574.525701
 20
-276.003556
 30
0.0
 10
574.578709
 20
-276.003556
 30
0.0
 10
574.632000
 20
-276.003556
 30
0.0
 10
574.685291
 20
-276.003556
 30
0.0
  0
SPLINE
  5
12e
100
AcDbEntity
  8
0
 62
7
100
AcDbSpline
 70
8
 71
3
 72
8
 73
4
 74
0
 40
0
 40
0
 40
0
 40
0
 40
1
 40
1
 40
1
 40
1
 10
574.685291
 20
-276.003556
 30
0.0
 10
574.773449
 20
-276.003556
 30
0.0
 10
574.861323
 20
-276.003556
 30
0.0
 10
574.949480
 20
-276.003556
 30
0.0
  0
SPLINE
  5
12f
100
AcDbEntity
  8
0
 62
7
100
AcDbSpline
 70
8
 71
3
 72
8
 73
4
 74
0
 40
0
 40
0
 40
0
 40
0
 40
1
 40
1
 40
1
 40
1
 10
574.949480
 20
-276.003556
 30
0.0
 10
575.071087
 20
-276.003556
 30
0.0
 10
575.192693
 20
-276.003556
 30
0.0
 10
575.314299
 20
-276.003556
 30
0.0
  0
SPLINE
  5
130
100
AcDbEntity
  8
0
 62
7
100
AcDbSpline
 70
8
 71
3
 72
8
 73
4
 74
0
 40
0
 40
0
 40
0
 40
0
 40
1
 40
1
 40
1
 40
1
 10
575.314299
 20
-276.003556
 30
0.0
 10
575.467937
 20
-276.003556
 30
0.0
 10
575.621858
 20
-276.003556
 30
0.0
 10
575.775496
 20
-276.003556
 30
0.0
  0
SPLINE
  5
131
100
AcDbEntity
  8
0
 62
7
100
AcDbSpline
 70
8
 71
3
 72
8
 73
4
 74
0
 40
0
 40
0
 40
0
 40
0
 40
1
 40
1
 40
1
 40
1
 10
575.775496
 20
-276.003556
 30
0.0
 10
575.959465
 20
-276.003556
 30
0.0
 10
576.143433
 20
-276.003556
 30
0.0
 10
576.327402
 20
-276.003556
 30
0.0
  0
SPLINE
  5
132
100
AcDbEntity
  8
0
 62
7
100
AcDbSpline
 70
8
 71
3
 72
8
 73
4
 74
0
 40
0
 40
0
 40
0
 40
0
 40
1
 40
1
 40
1
 40
1
 10
576.327402
 20
-276.003556
 30
0.0
 10
576.539150
 20
-276.003556
 30
0.0
 10
576.751181
 20
-276.003556
 30
0.0
 10
576.962929
 20
-276.003556
 30
0.0
  0
SPLINE
  5
133
100
AcDbEntity
  8
0
 62
7
100
AcDbSpline
 70
8
 71
3
 72
8
 73
4
 74
0
 40
0
 40
0
 40
0
 40
0
 40
1
 40
1
 40
1
 40
1
 10
576.962929
 20
-276.003556
 30
0.0
 10
577.199906
 20
-276.003556
 30
0.0
 10
577.436882
 20
-276.003556
 30
0.0
 10
577.673858
 20
-276.003556
 30
0.0
  0
SPLINE
  5
134
100
AcDbEntity
  8
0
 62
7
100
AcDbSpline
 70
8
 71
3
 72
8
 73
4
 74
0
 40
0
 40
0
 40
0
 40
0
 40
1
 40
1
 40
1
 40
1
 10
577.673858
 20
-276.003556
 30
0.0
 10
577.933228
 20
-276.003556
 30
0.0
 10
578.192315
 20
-276.003556
 30
0.0
 10
578.451685
 20
-276.003556
 30
0.0
  0
SPLINE
  5
135
100
AcDbEntity
  8
0
 62
7
100
AcDbSpline
 70
8
 71
3
 72
8
 73
4
 74
0
 40
0
 40
0
 40
0
 40
0
 40
1
 40
1
 40
1
 40
1
 10
578.451685
 20
-276.003556
 30
0.0
 10
578.730047
 20
-276.003556
 30
0.0
 10
579.008126
 20
-276.003556
 30
0.0
 10
579.286205
 20
-276.003556
 30
0.0
  0
SPLINE
  5
136
100
AcDbEntity
  8
0
 62
7
100
AcDbSpline
 70
8
 71
3
 72
8
 73
4
 74
0
 40
0
 40
0
 40
0
 40
0
 40
1
 40
1
 40
1
 40
1
 10
579.286205
 20
-276.003556
 30
0.0
 10
579.580157
 20
-276.003556
 30
0.0
 10
579.873827
 20
-276.003556
 30
0.0
 10
580.167496
 20
-276.003556
 30
0.0
  0
SPLINE
  5
137
100
AcDbEntity
  8
0
 62
7
100
AcDbSpline
 70
8
 71
3
 72
8
 73
4
 74
0
 40
0
 40
0
 40
0
 40
0
 40
1
 40
1
 40
1
 40
1
 10
580.167496
 20
-276.003556
 30
0.0
 10
580.472787
 20
-276.003556
 30
0.0
 10
580.778362
 20
-276.003556
 30
0.0
 10
581.083654
 20
-276.003556
 30
0.0
  0
SPLINE
  5
138
100
AcDbEntity
  8
0
 62
7
100
AcDbSpline
 70
8
 71
3
 72
8
 73
4
 74
0
 40
0
 40
0
 40
0
 40
0
 40
1
 40
1
 40
1
 40
1
 10
581.083654
 20
-276.003556
 30
0.0
 10
581.708409
 20
-276.003556
 30
0.0
 10
582.339118
 20
-276.003556
 30
0.0
 10
582.976063
 20
-276.003556
 30
0.0
  0
LWPOLYLINE
  5
139
100
AcDbEntity
  8
0
 62
7
100
AcDbPolyline
 90
20
 70
0
 10
619.705134
 20
-276.003556
 30
0.0
 10
619.705134
 20
-284.507493
 30
0.0
 10
582.976063
 20
-284.507493
 30
0.0
 10
582.023906
 20
-284.507493
 30
0.0
 10
581.083654
 20
-284.507493
 30
0.0
 10
580.167496
 20
-284.507493
 30
0.0
 10
579.286205
 20
-284.507493
 30
0.0
 10
578.451685
 20
-284.507493
 30
0.0
 10
577.673858
 20
-284.507493
 30
0.0
 10
576.962929
 20
-284.507493
 30
0.0
 10
576.327402
 20
-284.507493
 30
0.0
 10
575.775496
 20
-284.507493
 30
0.0
 10
575.314299
 20
-284.507493
 30
0.0
 10
574.949480
 20
-284.507493
 30
0.0
 10
574.685291
 20
-284.507493
 30
0.0
 10
574.525701
 20
-284.507493
 30
0.0
 10
574.472126
 20
-284.507493
 30
0.0
 10
574.472126
 20
-284.507493
 30
0.0
 10
574.472126
 20
-276.003556
 30
0.0
 10
574.472126
 20
-276.003556
 30
0.0
  0
LWPOLYLINE
  5
13a
100
AcDbEntity
  8
0
 62
7
100
AcDbPolyline
 90
2
 70
0
 10
582.976063
 20
-276.003556
 30
0.0
 10
619.705134
 20
-276.003556
 30
0.0
  0
SPLINE
  5
13b
100
AcDbEntity
  8
0
 62
7
100
AcDbSpline
 70
8
 71
3
 72
8
 73
4
 74
0
 40
0
 40
0
 40
0
 40
0
 40
1
 40
1
 40
1
 40
1
 10
251.322520
 20
-284.507493
 30
0.0
 10
251.304661
 20
-284.507493
 30
0.0
 10
251.286803
 20
-284.507493
 30
0.0
 10
251.268945
 20
-284.507493
 30
0.0
  0
SPLINE
  5
13c
100
AcDbEntity
  8
0
 62
7
100
AcDbSpline
 70
8
 71
3
 72
8
 73
4
 74
0
 40
0
 40
0
 40
0
 40
0
 40
1
 40
1
 40
1
 40
1
 10
251.268945
 20
-284.507493
 30
0.0
 10
251.215937
 20
-284.507493
 30
0.0
 10
251.162646
 20
-284.507493
 30
0.0
 10
251.109354
 20
-284.507493
 30
0.0
  0
SPLINE
  5
13d
100
AcDbEntity
  8
0
 62
7
100
AcDbSpline
 70
8
 71
3
 72
8
 73
4
 74
0
 40
0
 40
0
 40
0
 40
0
 40
1
 40
1
 40
1
 40
1
 10
251.109354
 20
-284.507493
 30
0.0
 10
251.021197
 20
-284.507493
 30
0.0
 10
250.933323
 20
-284.507493
 30
0.0
 10
250.845165
 20
-284.507493
 30
0.0
  0
SPLINE
  5
13e
100
AcDbEntity
  8
0
 62
7
100
AcDbSpline
 70
8
 71
3
 72
8
 73
4
 74
0
 40
0
 40
0
 40
0
 40
0
 40
1
 40
1
 40
1
 40
1
 10
250.845165
 20
-284.507493
 30
0.0
 10
250.723559
 20
-284.507493
 30
0.0
 10
250.601953
 20
-284.507493
 30
0.0
 10
250.480346
 20
-284.507493
 30
0.0
  0
SPLINE
  5
13f
100
AcDbEntity
  8
0
 62
7
100
AcDbSpline
 70
8
 71
3
 72
8
 73
4
 74
0
 40
0
 40
0
 40
0
 40
0
 40
1
 40
1
 40
1
 40
1
 10
250.480346
 20
-284.507493
 30
0.0
 10
250.326709
 20
-284.507493
 30
0.0
 10
250.172787
 20
-284.507493
 30
0.0
 10
250.019150
 20
-284.507493
 30
0.0
  0
SPLINE
  5
140
100
AcDbEntity
  8
0
 62
7
100
AcDbSpline
 70
8
 71
3
 72
8
 73
4
 74
0
 40
0
 40
0
 40
0
 40
0
 40
1
 40
1
 40
1
 40
1
 10
250.019150
 20
-284.507493
 30
0.0
 10
249.835181
 20
-284.507493
 30
0.0
 10
249.651213
 20
-284.507493
 30
0.0
 10
249.467244
 20
-284.507493
 30
0.0
  0
SPLINE
  5
141
100
AcDbEntity
  8
0
 62
7
100
AcDbSpline
 70
8
 71
3
 72
8
 73
4
 74
0
 40
0
 40
0
 40
0
 40
0
 40
1
 40
1
 40
1
 40
1
 10
249.467244
 20
-284.507493
 30
0.0
 10
249.255496
 20
-284.507493
 30
0.0
 10
249.043465
 20
-284.507493
 30
0.0
 10
248.831717
 20
-284.507493
 30
0.0
  0
SPLINE
  5
142
100
AcDbEntity
  8
0
 62
7
100
AcDbSpline
 70
8
 71
3
 72
8
 73
4
 74
0
 40
0
 40
0
 40
0
 40
0
 40
1
 40
1
 40
1
 40
1
 10
248.831717
 20
-284.507493
 30
0.0
 10
248.594740
 20
-284.507493
 30
0.0
 10
248.357764
 20
-284.507493
 30
0.0
 10
248.120787
 20
-284.507493
 30
0.0
  0
SPLINE
  5
143
100
AcDbEntity
  8
0
 62
7
100
AcDbSpline
 70
8
 71
3
 72
8
 73
4
 74
0
 40
0
 40
0
 40
0
 40
0
 40
1
 40
1
 40
1
 40
1
 10
248.120787
 20
-284.507493
 30
0.0
 10
247.861417
 20
-284.507493
 30
0.0
 10
247.602331
 20
-284.507493
 30
0.0
 10
247.342961
 20
-284.507493
 30
0.0
  0
SPLINE
  5
144
100
AcDbEntity
  8
0
 62
7
100
AcDbSpline
 70
8
 71
3
 72
8
 73
4
 74
0
 40
0
 40
0
 40
0
 40
0
 40
1
 40
1
 40
1
 40
1
 10
247.342961
 20
-284.507493
 30
0.0
 10
247.064598
 20
-284.507493
 30
0.0
 10
246.786520
 20
-284.507493
 30
0.0
 10
246.508441
 20
-284.507493
 30
0.0
  0
SPLINE
  5
145
100
AcDbEntity
  8
0
 62
7
100
AcDbSpline
 70
8
 71
3
 72
8
 73
4
 74
0
 40
0
 40
0
 40
0
 40
0
 40
1
 40
1
 40
1
 40
1
 10
246.508441
 20
-284.507493
 30
0.0
 10
246.214488
 20
-284.507493
 30
0.0
 10
245.920819
 20
-284.507493
 30
0.0
 10
245.627150
 20
-284.507493
 30
0.0
  0
SPLINE
  5
146
100
AcDbEntity
  8
0
 62
7
100
AcDbSpline
 70
8
 71
3
 72
8
 73
4
 74
0
 40
0
 40
0
 40
0
 40
0
 40
1
 40
1
 40
1
 40
1
 10
245.627150
 20
-284.507493
 30
0.0
 10
245.321858
 20
-284.507493
 30
0.0
 10
245.016283
 20
-284.507493
 30
0.0
 10
244.710992
 20
-284.507493
 30
0.0
  0
SPLINE
  5
147
100
AcDbEntity
  8
0
 62
7
100
AcDbSpline
 70
8
 71
3
 72
8
 73
4
 74
0
 40
0
 40
0
 40
0
 40
0
 40
1
 40
1
 40
1
 40
1
 10
244.710992
 20
-284.507493
 30
0.0
 10
244.086236
 20
-284.507493
 30
0.0
 10
243.455528
 20
-284.507493
 30
0.0
 10
242.818583
 20
-284.507493
 30
0.0
  0
LWPOLYLINE
  5
148
100
AcDbEntity
  8
0
 62
7
100
AcDbPolyline
 90
2
 70
0
 10
251.322520
 20
-276.003556
 30
0.0
 10
251.322520
 20
-284.507493
 30
0.0
  0
SPLINE
  5
149
100
AcDbEntity
  8
0
 62
7
100
AcDbSpline
 70
8
 71
3
 72
8
 73
4
 74
0
 40
0
 40
0
 40
0
 40
0
 40
1
 40
1
 40
1
 40
1
 10
242.818583
 20
-276.003556
 30
0.0
 10
243.455528
 20
-276.003556
 30
0.0
 10
244.086236
 20
-276.003556
 30
0.0
 10
244.710992
 20
-276.003556
 30
0.0
  0
SPLINE
  5
14a
100
AcDbEntity
  8
0
 62
7
100
AcDbSpline
 70
8
 71
3
 72
8
 73
4
 74
0
 40
0
 40
0
 40
0
 40
0
 40
1
 40
1
 40
1
 40
1
 10
244.710992
 20
-276.003556
 30
0.0
 10
245.016283
 20
-276.003556
 30
0.0
 10
245.321858
 20
-276.003556
 30
0.0
 10
245.627150
 20
-276.003556
 30
0.0
  0
SPLINE
  5
14b
100
AcDbEntity
  8
0
 62
7
100
AcDbSpline
 70
8
 71
3
 72
8
 73
4
 74
0
 40
0
 40
0
 40
0
 40
0
 40
1
 40
1
 40
1
 40
1
 10
245.627150
 20
-276.003556
 30
0.0
 10
245.920819
 20
-276.003556
 30
0.0
 10
246.214488
 20
-276.003556
 30
0.0
 10
246.508441
 20
-276.003556
 30
0.0
  0
SPLINE
  5
14c
100
AcDbEntity
  8
0
 62
7
100
AcDbSpline
 70
8
 71
3
 72
8
 73
4
 74
0
 40
0
 40
0
 40
0
 40
0
 40
1
 40
1
 40
1
 40
1
 10
246.508441
 20
-276.003556
 30
0.0
 10
246.786520
 20
-276.003556
 30
0.0
 10
247.064598
 20
-276.003556
 30
0.0
 10
247.342961
 20
-276.003556
 30
0.0
  0
SPLINE
  5
14d
100
AcDbEntity
  8
0
 62
7
100
AcDbSpline
 70
8
 71
3
 72
8
 73
4
 74
0
 40
0
 40
0
 40
0
 40
0
 40
1
 40
1
 40
1
 40
1
 10
247.342961
 20
-276.003556
 30
0.0
 10
247.602331
 20
-276.003556
 30
0.0
 10
247.861417
 20
-276.003556
 30
0.0
 10
248.120787
 20
-276.003556
 30
0.0
  0
SPLINE
  5
14e
100
AcDbEntity
  8
0
 62
7
100
AcDbSpline
 70
8
 71
3
 72
8
 73
4
 74
0
 40
0
 40
0
 40
0
 40
0
 40
1
 40
1
 40
1
 40
1
 10
248.120787
 20
-276.003556
 30
0.0
 10
248.357764
 20
-276.003556
 30
0.0
 10
248.594740
 20
-276.003556
 30
0.0
 10
248.831717
 20
-276.003556
 30
0.0
  0
SPLINE
  5
14f
100
AcDbEntity
  8
0
 62
7
100
AcDbSpline
 70
8
 71
3
 72
8
 73
4
 74
0
 40
0
 40
0
 40
0
 40
0
 40
1
 40
1
 40
1
 40
1
 10
248.831717
 20
-276.003556
 30
0.0
 10
249.043465
 20
-276.003556
 30
0.0
 10
249.255496
 20
-276.003556
 30
0.0
 10
249.467244
 20
-276.003556
 30
0.0
  0
SPLINE
  5
150
100
AcDbEntity
  8
0
 62
7
100
AcDbSpline
 70
8
 71
3
 72
8
 73
4
 74
0
 40
0
 40
0
 40
0
 40
0
 40
1
 40
1
 40
1
 40
1
 10
249.467244
 20
-276.003556
 30
0.0
 10
249.651213
 20
-276.003556
 30
0.0
 10
249.835181
 20
-276.003556
 30
0.0
 10
250.019150
 20
-276.003556
 30
0.0
  0
SPLINE
  5
151
100
AcDbEntity
  8
0
 62
7
100
AcDbSpline
 70
8
 71
3
 72
8
 73
4
 74
0
 40
0
 40
0
 40
0
 40
0
 40
1
 40
1
 40
1
 40
1
 10
250.019150
 20
-276.003556
 30
0.0
 10
250.172787
 20
-276.003556
 30
0.0
 10
250.326709
 20
-276.003556
 30
0.0
 10
250.480346
 20
-276.003556
 30
0.0
  0
SPLINE
  5
152
100
AcDbEntity
  8
0
 62
7
100
AcDbSpline
 70
8
 71
3
 72
8
 73
4
 74
0
 40
0
 40
0
 40
0
 40
0
 40
1
 40
1
 40
1
 40
1
 10
250.480346
 20
-276.003556
 30
0.0
 10
250.601953
 20
-276.003556
 30
0.0
 10
250.723559
 20
-276.003556
 30
0.0
 10
250.845165
 20
-276.003556
 30
0.0
  0
SPLINE
  5
153
100
AcDbEntity
  8
0
 62
7
100
AcDbSpline
 70
8
 71
3
 72
8
 73
4
 74
0
 40
0
 40
0
 40
0
 40
0
 40
1
 40
1
 40
1
 40
1
 10
250.845165
 20
-276.003556
 30
0.0
 10
250.933323
 20
-276.003556
 30
0.0
 10
251.021197
 20
-276.003556
 30
0.0
 10
251.109354
 20
-276.003556
 30
0.0
  0
SPLINE
  5
154
100
AcDbEntity
  8
0
 62
7
100
AcDbSpline
 70
8
 71
3
 72
8
 73
4
 74
0
 40
0
 40
0
 40
0
 40
0
 40
1
 40
1
 40
1
 40
1
 10
251.109354
 20
-276.003556
 30
0.0
 10
251.162646
 20
-276.003556
 30
0.0
 10
251.215937
 20
-276.003556
 30
0.0
 10
251.268945
 20
-276.003556
 30
0.0
  0
SPLINE
  5
155
100
AcDbEntity
  8
0
 62
7
100
AcDbSpline
 70
8
 71
3
 72
8
 73
4
 74
0
 40
0
 40
0
 40
0
 40
0
 40
1
 40
1
 40
1
 40
1
 10
251.268945
 20
-276.003556
 30
0.0
 10
251.286803
 20
-276.003556
 30
0.0
 10
251.304661
 20
-276.003556
 30
0.0
 10
251.322520
 20
-276.003556
 30
0.0
  0
LWPOLYLINE
  5
156
100
AcDbEntity
  8
0
 62
7
100
AcDbPolyline
 90
4
 70
0
 10
242.818583
 20
-284.507493
 30
0.0
 10
206.089512
 20
-284.507493
 30
0.0
 10
206.089512
 20
-276.003556
 30
0.0
 10
242.818583
 20
-276.003556
 30
0.0
  0
LWPOLYLINE
  5
157
100
AcDbEntity
  8
0
 62
7
100
AcDbPolyline
 90
2
 70
0
 10
206.089512
 20
-276.003556
 30
0.0
 10
206.089512
 20
-284.507493
 30
0.0
  0
SPLINE
  5
158
100
AcDbEntity
  8
0
 62
7
100
AcDbSpline
 70
8
 71
3
 72
8
 73
4
 74
0
 40
0
 40
0
 40
0
 40
0
 40
1
 40
1
 40
1
 40
1
 10
251.322520
 20
-284.507493
 30
0.0
 10
251.304661
 20
-284.507493
 30
0.0
 10
251.286803
 20
-284.507493
 30
0.0
 10
251.268945
 20
-284.507493
 30
0.0
  0
SPLINE
  5
159
100
AcDbEntity
  8
0
 62
7
100
AcDbSpline
 70
8
 71
3
 72
8
 73
4
 74
0
 40
0
 40
0
 40
0
 40
0
 40
1
 40
1
 40
1
 40
1
 10
251.268945
 20
-284.507493
 30
0.0
 10
251.215937
 20
-284.507493
 30
0.0
 10
251.162646
 20
-284.507493
 30
0.0
 10
251.109354
 20
-284.507493
 30
0.0
  0
SPLINE
  5
15a
100
AcDbEntity
  8
0
 62
7
100
AcDbSpline
 70
8
 71
3
 72
8
 73
4
 74
0
 40
0
 40
0
 40
0
 40
0
 40
1
 40
1
 40
1
 40
1
 10
251.109354
 20
-284.507493
 30
0.0
 10
251.021197
 20
-284.507493
 30
0.0
 10
250.933323
 20
-284.507493
 30
0.0
 10
250.845165
 20
-284.507493
 30
0.0
  0
SPLINE
  5
15b
100
AcDbEntity
  8
0
 62
7
100
AcDbSpline
 70
8
 71
3
 72
8
 73
4
 74
0
 40
0
 40
0
 40
0
 40
0
 40
1
 40
1
 40
1
 40
1
 10
250.845165
 20
-284.507493
 30
0.0
 10
250.723559
 20
-284.507493
 30
0.0
 10
250.601953
 20
-284.507493
 30
0.0
 10
250.480346
 20
-284.507493
 30
0.0
  0
SPLINE
  5
15c
100
AcDbEntity
  8
0
 62
7
100
AcDbSpline
 70
8
 71
3
 72
8
 73
4
 74
0
 40
0
 40
0
 40
0
 40
0
 40
1
 40
1
 40
1
 40
1
 10
250.480346
 20
-284.507493
 30
0.0
 10
250.326709
 20
-284.507493
 30
0.0
 10
250.172787
 20
-284.507493
 30
0.0
 10
250.019150
 20
-284.507493
 30
0.0
  0
SPLINE
  5
15d
100
AcDbEntity
  8
0
 62
7
100
AcDbSpline
 70
8
 71
3
 72
8
 73
4
 74
0
 40
0
 40
0
 40
0
 40
0
 40
1
 40
1
 40
1
 40
1
 10
250.019150
 20
-284.507493
 30
0.0
 10
249.835181
 20
-284.507493
 30
0.0
 10
249.651213
 20
-284.507493
 30
0.0
 10
249.467244
 20
-284.507493
 30
0.0
  0
SPLINE
  5
15e
100
AcDbEntity
  8
0
 62
7
100
AcDbSpline
 70
8
 71
3
 72
8
 73
4
 74
0
 40
0
 40
0
 40
0
 40
0
 40
1
 40
1
 40
1
 40
1
 10
249.467244
 20
-284.507493
 30
0.0
 10
249.255496
 20
-284.507493
 30
0.0
 10
249.043465
 20
-284.507493
 30
0.0
 10
248.831717
 20
-284.507493
 30
0.0
  0
SPLINE
  5
15f
100
AcDbEntity
  8
0
 62
7
100
AcDbSpline
 70
8
 71
3
 72
8
 73
4
 74
0
 40
0
 40
0
 40
0
 40
0
 40
1
 40
1
 40
1
 40
1
 10
248.831717
 20
-284.507493
 30
0.0
 10
248.594740
 20
-284.507493
 30
0.0
 10
248.357764
 20
-284.507493
 30
0.0
 10
248.120787
 20
-284.507493
 30
0.0
  0
SPLINE
  5
160
100
AcDbEntity
  8
0
 62
7
100
AcDbSpline
 70
8
 71
3
 72
8
 73
4
 74
0
 40
0
 40
0
 40
0
 40
0
 40
1
 40
1
 40
1
 40
1
 10
248.120787
 20
-284.507493
 30
0.0
 10
247.861417
 20
-284.507493
 30
0.0
 10
247.602331
 20
-284.507493
 30
0.0
 10
247.342961
 20
-284.507493
 30
0.0
  0
SPLINE
  5
161
100
AcDbEntity
  8
0
 62
7
100
AcDbSpline
 70
8
 71
3
 72
8
 73
4
 74
0
 40
0
 40
0
 40
0
 40
0
 40
1
 40
1
 40
1
 40
1
 10
247.342961
 20
-284.507493
 30
0.0
 10
247.064598
 20
-284.507493
 30
0.0
 10
246.786520
 20
-284.507493
 30
0.0
 10
246.508441
 20
-284.507493
 30
0.0
  0
SPLINE
  5
162
100
AcDbEntity
  8
0
 62
7
100
AcDbSpline
 70
8
 71
3
 72
8
 73
4
 74
0
 40
0
 40
0
 40
0
 40
0
 40
1
 40
1
 40
1
 40
1
 10
246.508441
 20
-284.507493
 30
0.0
 10
246.214488
 20
-284.507493
 30
0.0
 10
245.920819
 20
-284.507493
 30
0.0
 10
245.627150
 20
-284.507493
 30
0.0
  0
SPLINE
  5
163
100
AcDbEntity
  8
0
 62
7
100
AcDbSpline
 70
8
 71
3
 72
8
 73
4
 74
0
 40
0
 40
0
 40
0
 40
0
 40
1
 40
1
 40
1
 40
1
 10
245.627150
 20
-284.507493
 30
0.0
 10
245.321858
 20
-284.507493
 30
0.0
 10
245.016283
 20
-284.507493
 30
0.0
 10
244.710992
 20
-284.507493
 30
0.0
  0
SPLINE
  5
164
100
AcDbEntity
  8
0
 62
7
100
AcDbSpline
 70
8
 71
3
 72
8
 73
4
 74
0
 40
0
 40
0
 40
0
 40
0
 40
1
 40
1
 40
1
 40
1
 10
244.710992
 20
-284.507493
 30
0.0
 10
244.086236
 20
-284.507493
 30
0.0
 10
243.455528
 20
-284.507493
 30
0.0
 10
242.818583
 20
-284.507493
 30
0.0
  0
LWPOLYLINE
  5
165
100
AcDbEntity
  8
0
 62
7
100
AcDbPolyline
 90
2
 70
0
 10
619.705134
 20
-276.003556
 30
0.0
 10
619.705134
 20
-284.507493
 30
0.0
  0
LWPOLYLINE
  5
166
100
AcDbEntity
  8
0
 62
7
100
AcDbPolyline
 90
15
 70
0
 10
251.322520
 20
-284.507493
 30
0.0
 10
269.146488
 20
-284.507493
 30
0.0
 10
289.322646
 20
-284.507493
 30
0.0
 10
311.520189
 20
-284.507493
 30
0.0
 10
335.376567
 20
-284.507493
 30
0.0
 10
360.501449
 20
-284.507493
 30
0.0
 10
386.483244
 20
-284.507493
 30
0.0
 10
412.897323
 20
-284.507493
 30
0.0
 10
439.311402
 20
-284.507493
 30
0.0
 10
465.293197
 20
-284.507493
 30
0.0
 10
490.418079
 20
-284.507493
 30
0.0
 10
514.274457
 20
-284.507493
 30
0.0
 10
536.472000
 20
-284.507493
 30
0.0
 10
556.648157
 20
-284.507493
 30
0.0
 10
574.472126
 20
-284.507493
 30
0.0
  0
LWPOLYLINE
  5
167
100
AcDbEntity
  8
0
 62
7
100
AcDbPolyline
 90
2
 70
0
 10
206.089512
 20
-284.507493
 30
0.0
 10
242.818583
 20
-284.507493
 30
0.0
  0
LWPOLYLINE
  5
168
100
AcDbEntity
  8
0
 62
7
100
AcDbPolyline
 90
15
 70
0
 10
582.976063
 20
-284.507493
 30
0.0
 10
582.023906
 20
-284.507493
 30
0.0
 10
581.083654
 20
-284.507493
 30
0.0
 10
580.167496
 20
-284.507493
 30
0.0
 10
579.286205
 20
-284.507493
 30
0.0
 10
578.451685
 20
-284.507493
 30
0.0
 10
577.673858
 20
-284.507493
 30
0.0
 10
576.962929
 20
-284.507493
 30
0.0
 10
576.327402
 20
-284.507493
 30
0.0
 10
575.775496
 20
-284.507493
 30
0.0
 10
575.314299
 20
-284.507493
 30
0.0
 10
574.949480
 20
-284.507493
 30
0.0
 10
574.685291
 20
-284.507493
 30
0.0
 10
574.525701
 20
-284.507493
 30
0.0
 10
574.472126
 20
-284.507493
 30
0.0
  0
LWPOLYLINE
  5
169
100
AcDbEntity
  8
0
 62
7
100
AcDbPolyline
 90
2
 70
0
 10
619.705134
 20
-284.507493
 30
0.0
 10
582.976063
 20
-284.507493
 30
0.0
  0
SPLINE
  5
16a
100
AcDbEntity
  8
0
 62
7
100
AcDbSpline
 70
8
 71
3
 72
8
 73
4
 74
0
 40
0
 40
0
 40
0
 40
0
 40
1
 40
1
 40
1
 40
1
 10
251.322520
 20
-276.003556
 30
0.0
 10
251.304661
 20
-276.003556
 30
0.0
 10
251.286803
 20
-276.003556
 30
0.0
 10
251.268945
 20
-276.003556
 30
0.0
  0
SPLINE
  5
16b
100
AcDbEntity
  8
0
 62
7
100
AcDbSpline
 70
8
 71
3
 72
8
 73
4
 74
0
 40
0
 40
0
 40
0
 40
0
 40
1
 40
1
 40
1
 40
1
 10
251.268945
 20
-276.003556
 30
0.0
 10
251.215937
 20
-276.003556
 30
0.0
 10
251.162646
 20
-276.003556
 30
0.0
 10
251.109354
 20
-276.003556
 30
0.0
  0
SPLINE
  5
16c
100
AcDbEntity
  8
0
 62
7
100
AcDbSpline
 70
8
 71
3
 72
8
 73
4
 74
0
 40
0
 40
0
 40
0
 40
0
 40
1
 40
1
 40
1
 40
1
 10
251.109354
 20
-276.003556
 30
0.0
 10
251.021197
 20
-276.003556
 30
0.0
 10
250.933323
 20
-276.003556
 30
0.0
 10
250.845165
 20
-276.003556
 30
0.0
  0
SPLINE
  5
16d
100
AcDbEntity
  8
0
 62
7
100
AcDbSpline
 70
8
 71
3
 72
8
 73
4
 74
0
 40
0
 40
0
 40
0
 40
0
 40
1
 40
1
 40
1
 40
1
 10
250.845165
 20
-276.003556
 30
0.0
 10
250.723559
 20
-276.003556
 30
0.0
 10
250.601953
 20
-276.003556
 30
0.0
 10
250.480346
 20
-276.003556
 30
0.0
  0
SPLINE
  5
16e
100
AcDbEntity
  8
0
 62
7
100
AcDbSpline
 70
8
 71
3
 72
8
 73
4
 74
0
 40
0
 40
0
 40
0
 40
0
 40
1
 40
1
 40
1
 40
1
 10
250.480346
 20
-276.003556
 30
0.0
 10
250.326709
 20
-276.003556
 30
0.0
 10
250.172787
 20
-276.003556
 30
0.0
 10
250.019150
 20
-276.003556
 30
0.0
  0
SPLINE
  5
16f
100
AcDbEntity
  8
0
 62
7
100
AcDbSpline
 70
8
 71
3
 72
8
 73
4
 74
0
 40
0
 40
0
 40
0
 40
0
 40
1
 40
1
 40
1
 40
1
 10
250.019150
 20
-276.003556
 30
0.0
 10
249.835181
 20
-276.003556
 30
0.0
 10
249.651213
 20
-276.003556
 30
0.0
 10
249.467244
 20
-276.003556
 30
0.0
  0
SPLINE
  5
170
100
AcDbEntity
  8
0
 62
7
100
AcDbSpline
 70
8
 71
3
 72
8
 73
4
 74
0
 40
0
 40
0
 40
0
 40
0
 40
1
 40
1
 40
1
 40
1
 10
249.467244
 20
-276.003556
 30
0.0
 10
249.255496
 20
-276.003556
 30
0.0
 10
249.043465
 20
-276.003556
 30
0.0
 10
248.831717
 20
-276.003556
 30
0.0
  0
SPLINE
  5
171
100
AcDbEntity
  8
0
 62
7
100
AcDbSpline
 70
8
 71
3
 72
8
 73
4
 74
0
 40
0
 40
0
 40
0
 40
0
 40
1
 40
1
 40
1
 40
1
 10
248.831717
 20
-276.003556
 30
0.0
 10
248.594740
 20
-276.003556
 30
0.0
 10
248.357764
 20
-276.003556
 30
0.0
 10
248.120787
 20
-276.003556
 30
0.0
  0
SPLINE
  5
172
100
AcDbEntity
  8
0
 62
7
100
AcDbSpline
 70
8
 71
3
 72
8
 73
4
 74
0
 40
0
 40
0
 40
0
 40
0
 40
1
 40
1
 40
1
 40
1
 10
248.120787
 20
-276.003556
 30
0.0
 10
247.861417
 20
-276.003556
 30
0.0
 10
247.602331
 20
-276.003556
 30
0.0
 10
247.342961
 20
-276.003556
 30
0.0
  0
SPLINE
  5
173
100
AcDbEntity
  8
0
 62
7
100
AcDbSpline
 70
8
 71
3
 72
8
 73
4
 74
0
 40
0
 40
0
 40
0
 40
0
 40
1
 40
1
 40
1
 40
1
 10
247.342961
 20
-276.003556
 30
0.0
 10
247.064598
 20
-276.003556
 30
0.0
 10
246.786520
 20
-276.003556
 30
0.0
 10
246.508441
 20
-276.003556
 30
0.0
  0
SPLINE
  5
174
100
AcDbEntity
  8
0
 62
7
100
AcDbSpline
 70
8
 71
3
 72
8
 73
4
 74
0
 40
0
 40
0
 40
0
 40
0
 40
1
 40
1
 40
1
 40
1
 10
246.508441
 20
-276.003556
 30
0.0
 10
246.214488
 20
-276.003556
 30
0.0
 10
245.920819
 20
-276.003556
 30
0.0
 10
245.627150
 20
-276.003556
 30
0.0
  0
SPLINE
  5
175
100
AcDbEntity
  8
0
 62
7
100
AcDbSpline
 70
8
 71
3
 72
8
 73
4
 74
0
 40
0
 40
0
 40
0
 40
0
 40
1
 40
1
 40
1
 40
1
 10
245.627150
 20
-276.003556
 30
0.0
 10
245.321858
 20
-276.003556
 30
0.0
 10
245.016283
 20
-276.003556
 30
0.0
 10
244.710992
 20
-276.003556
 30
0.0
  0
SPLINE
  5
176
100
AcDbEntity
  8
0
 62
7
100
AcDbSpline
 70
8
 71
3
 72
8
 73
4
 74
0
 40
0
 40
0
 40
0
 40
0
 40
1
 40
1
 40
1
 40
1
 10
244.710992
 20
-276.003556
 30
0.0
 10
244.086236
 20
-276.003556
 30
0.0
 10
243.455528
 20
-276.003556
 30
0.0
 10
242.818583
 20
-276.003556
 30
0.0
  0
LWPOLYLINE
  5
177
100
AcDbEntity
  8
0
 62
7
100
AcDbPolyline
 90
2
 70
0
 10
206.089512
 20
-276.003556
 30
0.0
 10
242.818583
 20
-276.003556
 30
0.0
  0
SPLINE
  5
178
100
AcDbEntity
  8
0
 62
7
100
AcDbSpline
 70
8
 71
3
 72
8
 73
4
 74
0
 40
0
 40
0
 40
0
 40
0
 40
1
 40
1
 40
1
 40
1
 10
574.472126
 20
-276.003556
 30
0.0
 10
574.489984
 20
-276.003556
 30
0.0
 10
574.507843
 20
-276.003556
 30
0.0
 10
574.525701
 20
-276.003556
 30
0.0
  0
SPLINE
  5
179
100
AcDbEntity
  8
0
 62
7
100
AcDbSpline
 70
8
 71
3
 72
8
 73
4
 74
0
 40
0
 40
0
 40
0
 40
0
 40
1
 40
1
 40
1
 40
1
 10
574.525701
 20
-276.003556
 30
0.0
 10
574.578709
 20
-276.003556
 30
0.0
 10
574.632000
 20
-276.003556
 30
0.0
 10
574.685291
 20
-276.003556
 30
0.0
  0
SPLINE
  5
17a
100
AcDbEntity
  8
0
 62
7
100
AcDbSpline
 70
8
 71
3
 72
8
 73
4
 74
0
 40
0
 40
0
 40
0
 40
0
 40
1
 40
1
 40
1
 40
1
 10
574.685291
 20
-276.003556
 30
0.0
 10
574.773449
 20
-276.003556
 30
0.0
 10
574.861323
 20
-276.003556
 30
0.0
 10
574.949480
 20
-276.003556
 30
0.0
  0
SPLINE
  5
17b
100
AcDbEntity
  8
0
 62
7
100
AcDbSpline
 70
8
 71
3
 72
8
 73
4
 74
0
 40
0
 40
0
 40
0
 40
0
 40
1
 40
1
 40
1
 40
1
 10
574.949480
 20
-276.003556
 30
0.0
 10
575.071087
 20
-276.003556
 30
0.0
 10
575.192693
 20
-276.003556
 30
0.0
 10
575.314299
 20
-276.003556
 30
0.0
  0
SPLINE
  5
17c
100
AcDbEntity
  8
0
 62
7
100
AcDbSpline
 70
8
 71
3
 72
8
 73
4
 74
0
 40
0
 40
0
 40
0
 40
0
 40
1
 40
1
 40
1
 40
1
 10
575.314299
 20
-276.003556
 30
0.0
 10
575.467937
 20
-276.003556
 30
0.0
 10
575.621858
 20
-276.003556
 30
0.0
 10
575.775496
 20
-276.003556
 30
0.0
  0
SPLINE
  5
17d
100
AcDbEntity
  8
0
 62
7
100
AcDbSpline
 70
8
 71
3
 72
8
 73
4
 74
0
 40
0
 40
0
 40
0
 40
0
 40
1
 40
1
 40
1
 40
1
 10
575.775496
 20
-276.003556
 30
0.0
 10
575.959465
 20
-276.003556
 30
0.0
 10
576.143433
 20
-276.003556
 30
0.0
 10
576.327402
 20
-276.003556
 30
0.0
  0
SPLINE
  5
17e
100
AcDbEntity
  8
0
 62
7
100
AcDbSpline
 70
8
 71
3
 72
8
 73
4
 74
0
 40
0
 40
0
 40
0
 40
0
 40
1
 40
1
 40
1
 40
1
 10
576.327402
 20
-276.003556
 30
0.0
 10
576.539150
 20
-276.003556
 30
0.0
 10
576.751181
 20
-276.003556
 30
0.0
 10
576.962929
 20
-276.003556
 30
0.0
  0
SPLINE
  5
17f
100
AcDbEntity
  8
0
 62
7
100
AcDbSpline
 70
8
 71
3
 72
8
 73
4
 74
0
 40
0
 40
0
 40
0
 40
0
 40
1
 40
1
 40
1
 40
1
 10
576.962929
 20
-276.003556
 30
0.0
 10
577.199906
 20
-276.003556
 30
0.0
 10
577.436882
 20
-276.003556
 30
0.0
 10
577.673858
 20
-276.003556
 30
0.0
  0
SPLINE
  5
180
100
AcDbEntity
  8
0
 62
7
100
AcDbSpline
 70
8
 71
3
 72
8
 73
4
 74
0
 40
0
 40
0
 40
0
 40
0
 40
1
 40
1
 40
1
 40
1
 10
577.673858
 20
-276.003556
 30
0.0
 10
577.933228
 20
-276.003556
 30
0.0
 10
578.192315
 20
-276.003556
 30
0.0
 10
578.451685
 20
-276.003556
 30
0.0
  0
SPLINE
  5
181
100
AcDbEntity
  8
0
 62
7
100
AcDbSpline
 70
8
 71
3
 72
8
 73
4
 74
0
 40
0
 40
0
 40
0
 40
0
 40
1
 40
1
 40
1
 40
1
 10
578.451685
 20
-276.003556
 30
0.0
 10
578.730047
 20
-276.003556
 30
0.0
 10
579.008126
 20
-276.003556
 30
0.0
 10
579.286205
 20
-276.003556
 30
0.0
  0
SPLINE
  5
182
100
AcDbEntity
  8
0
 62
7
100
AcDbSpline
 70
8
 71
3
 72
8
 73
4
 74
0
 40
0
 40
0
 40
0
 40
0
 40
1
 40
1
 40
1
 40
1
 10
579.286205
 20
-276.003556
 30
0.0
 10
579.580157
 20
-276.003556
 30
0.0
 10
579.873827
 20
-276.003556
 30
0.0
 10
580.167496
 20
-276.003556
 30
0.0
  0
SPLINE
  5
183
100
AcDbEntity
  8
0
 62
7
100
AcDbSpline
 70
8
 71
3
 72
8
 73
4
 74
0
 40
0
 40
0
 40
0
 40
0
 40
1
 40
1
 40
1
 40
1
 10
580.167496
 20
-276.003556
 30
0.0
 10
580.472787
 20
-276.003556
 30
0.0
 10
580.778362
 20
-276.003556
 30
0.0
 10
581.083654
 20
-276.003556
 30
0.0
  0
SPLINE
  5
184
100
AcDbEntity
  8
0
 62
7
100
AcDbSpline
 70
8
 71
3
 72
8
 73
4
 74
0
 40
0
 40
0
 40
0
 40
0
 40
1
 40
1
 40
1
 40
1
 10
581.083654
 20
-276.003556
 30
0.0
 10
581.708409
 20
-276.003556
 30
0.0
 10
582.339118
 20
-276.003556
 30
0.0
 10
582.976063
 20
-276.003556
 30
0.0
  0
LWPOLYLINE
  5
185
100
AcDbEntity
  8
0
 62
7
100
AcDbPolyline
 90
15
 70
0
 10
251.322520
 20
-276.003556
 30
0.0
 10
269.146488
 20
-276.003556
 30
0.0
 10
289.322646
 20
-276.003556
 30
0.0
 10
311.520189
 20
-276.003556
 30
0.0
 10
335.376567
 20
-276.003556
 30
0.0
 10
360.501449
 20
-276.003556
 30
0.0
 10
386.483244
 20
-276.003556
 30
0.0
 10
412.897323
 20
-276.003556
 30
0.0
 10
439.311402
 20
-276.003556
 30
0.0
 10
465.293197
 20
-276.003556
 30
0.0
 10
490.418079
 20
-276.003556
 30
0.0
 10
514.274457
 20
-276.003556
 30
0.0
 10
536.472000
 20
-276.003556
 30
0.0
 10
556.648157
 20
-276.003556
 30
0.0
 10
574.472126
 20
-276.003556
 30
0.0
  0
LWPOLYLINE
  5
186
100
AcDbEntity
  8
0
 62
7
100
AcDbPolyline
 90
2
 70
0
 10
619.705134
 20
-276.003556
 30
0.0
 10
582.976063
 20
-276.003556
 30
0.0
  0
LWPOLYLINE
  5
187
100
AcDbEntity
  8
0
 62
7
100
AcDbPolyline
 90
2
 70
0
 10
251.322520
 20
-276.003556
 30
0.0
 10
251.322520
 20
-284.507493
 30
0.0
  0
LWPOLYLINE
  5
188
100
AcDbEntity
  8
0
 62
7
100
AcDbPolyline
 90
2
 70
0
 10
574.472126
 20
-276.003556
 30
0.0
 10
574.472126
 20
-284.507493
 30
0.0
  0
SPLINE
  5
189
100
AcDbEntity
  8
0
 62
7
100
AcDbSpline
 70
8
 71
3
 72
8
 73
4
 74
0
 40
0
 40
0
 40
0
 40
0
 40
1
 40
1
 40
1
 40
1
 10
582.976063
 20
-19.258076
 30
0.0
 10
578.279339
 20
-19.258076
 30
0.0
 10
574.472126
 20
-15.450722
 30
0.0
 10
574.472126
 20
-10.754139
 30
0.0
  0
LWPOLYLINE
  5
18a
100
AcDbEntity
  8
0
 62
7
100
AcDbPolyline
 90
2
 70
0
 10
619.705134
 20
-19.258076
 30
0.0
 10
582.976063
 20
-19.258076
 30
0.0
  0
SPLINE
  5
18b
100
AcDbEntity
  8
0
 62
7
100
AcDbSpline
 70
8
 71
3
 72
8
 73
4
 74
0
 40
0
 40
0
 40
0
 40
0
 40
1
 40
1
 40
1
 40
1
 10
574.472126
 20
117.108223
 30
0.0
 10
535.202362
 20
166.187845
 30
0.0
 10
475.753606
 20
194.757672
 30
0.0
 10
412.897323
 20
194.757672
 30
0.0
  0
SPLINE
  5
18c
100
AcDbEntity
  8
0
 62
7
100
AcDbSpline
 70
8
 71
3
 72
8
 73
4
 74
0
 40
0
 40
0
 40
0
 40
0
 40
1
 40
1
 40
1
 40
1
 10
412.897323
 20
194.757672
 30
0.0
 10
350.041039
 20
194.757672
 30
0.0
 10
290.592283
 20
166.187845
 30
0.0
 10
251.322520
 20
117.108223
 30
0.0
  0
LWPOLYLINE
  5
18d
100
AcDbEntity
  8
0
 62
7
100
AcDbPolyline
 90
2
 70
0
 10
574.472126
 20
-10.754139
 30
0.0
 10
574.472126
 20
117.108223
 30
0.0
  0
SPLINE
  5
18e
100
AcDbEntity
  8
0
 62
7
100
AcDbSpline
 70
8
 71
3
 72
8
 73
4
 74
0
 40
0
 40
0
 40
0
 40
0
 40
1
 40
1
 40
1
 40
1
 10
251.322520
 20
-10.754139
 30
0.0
 10
251.322520
 20
-15.450722
 30
0.0
 10
247.515307
 20
-19.258076
 30
0.0
 10
242.818583
 20
-19.258076
 30
0.0
  0
LWPOLYLINE
  5
18f
100
AcDbEntity
  8
0
 62
7
100
AcDbPolyline
 90
3
 70
0
 10
251.322520
 20
117.108223
 30
0.0
 10
251.322520
 20
-10.754139
 30
0.0
 10
251.322520
 20
-10.754139
 30
0.0
  0
SPLINE
  5
190
100
AcDbEntity
  8
0
 62
7
100
AcDbSpline
 70
8
 71
3
 72
8
 73
4
 74
0
 40
0
 40
0
 40
0
 40
0
 40
1
 40
1
 40
1
 40
1
 10
206.089512
 20
-19.258076
 30
0.0
 10
209.908913
 20
-130.718045
 30
0.0
 10
301.371874
 20
-219.100596
 30
0.0
 10
412.897323
 20
-219.100596
 30
0.0
  0
SPLINE
  5
191
100
AcDbEntity
  8
0
 62
7
100
AcDbSpline
 70
8
 71
3
 72
8
 73
4
 74
0
 40
0
 40
0
 40
0
 40
0
 40
1
 40
1
 40
1
 40
1
 10
412.897323
 20
-219.100596
 30
0.0
 10
524.422772
 20
-219.100596
 30
0.0
 10
615.885732
 20
-130.718045
 30
0.0
 10
619.705134
 20
-19.258076
 30
0.0
  0
SPLINE
  5
192
100
AcDbEntity
  8
0
 62
7
100
AcDbSpline
 70
8
 71
3
 72
8
 73
4
 74
0
 40
0
 40
0
 40
0
 40
0
 40
1
 40
1
 40
1
 40
1
 10
276.834331
 20
-32.013982
 30
0.0
 10
271.354961
 20
-32.013982
 30
0.0
 10
266.913071
 20
-27.572092
 30
0.0
 10
266.913071
 20
-22.092722
 30
0.0
  0
SPLINE
  5
193
100
AcDbEntity
  8
0
 62
7
100
AcDbSpline
 70
8
 71
3
 72
8
 73
4
 74
0
 40
0
 40
0
 40
0
 40
0
 40
1
 40
1
 40
1
 40
1
 10
266.913071
 20
-22.092722
 30
0.0
 10
266.913071
 20
-16.613352
 30
0.0
 10
271.354961
 20
-12.171462
 30
0.0
 10
276.834331
 20
-12.171462
 30
0.0
  0
LWPOLYLINE
  5
194
100
AcDbEntity
  8
0
 62
7
100
AcDbPolyline
 90
2
 70
0
 10
242.818583
 20
-19.258076
 30
0.0
 10
206.089512
 20
-19.258076
 30
0.0
  0
SPLINE
  5
195
100
AcDbEntity
  8
0
 62
7
100
AcDbSpline
 70
8
 71
3
 72
8
 73
4
 74
0
 40
0
 40
0
 40
0
 40
0
 40
1
 40
1
 40
1
 40
1
 10
319.354016
 20
-12.171462
 30
0.0
 10
324.833386
 20
-12.171462
 30
0.0
 10
329.275276
 20
-16.613352
 30
0.0
 10
329.275276
 20
-22.092722
 30
0.0
  0
SPLINE
  5
196
100
AcDbEntity
  8
0
 62
7
100
AcDbSpline
 70
8
 71
3
 72
8
 73
4
 74
0
 40
0
 40
0
 40
0
 40
0
 40
1
 40
1
 40
1
 40
1
 10
329.275276
 20
-22.092722
 30
0.0
 10
329.275276
 20
-27.572092
 30
0.0
 10
324.833386
 20
-32.013982
 30
0.0
 10
319.354016
 20
-32.013982
 30
0.0
  0
LWPOLYLINE
  5
197
100
AcDbEntity
  8
0
 62
7
100
AcDbPolyline
 90
2
 70
0
 10
276.834331
 20
-12.171462
 30
0.0
 10
319.354016
 20
-12.171462
 30
0.0
  0
SPLINE
  5
198
100
AcDbEntity
  8
0
 62
7
100
AcDbSpline
 70
8
 71
3
 72
8
 73
4
 74
0
 40
0
 40
0
 40
0
 40
0
 40
1
 40
1
 40
1
 40
1
 10
506.440630
 20
-32.013982
 30
0.0
 10
500.961260
 20
-32.013982
 30
0.0
 10
496.519370
 20
-27.572092
 30
0.0
 10
496.519370
 20
-22.092722
 30
0.0
  0
SPLINE
  5
199
100
AcDbEntity
  8
0
 62
7
100
AcDbSpline
 70
8
 71
3
 72
8
 73
4
 74
0
 40
0
 40
0
 40
0
 40
0
 40
1
 40
1
 40
1
 40
1
 10
496.519370
 20
-22.092722
 30
0.0
 10
496.519370
 20
-16.613352
 30
0.0
 10
500.961260
 20
-12.171462
 30
0.0
 10
506.440630
 20
-12.171462
 30
0.0
  0
LWPOLYLINE
  5
19a
100
AcDbEntity
  8
0
 62
7
100
AcDbPolyline
 90
2
 70
0
 10
319.354016
 20
-32.013982
 30
0.0
 10
276.834331
 20
-32.013982
 30
0.0
  0
SPLINE
  5
19b
100
AcDbEntity
  8
0
 62
7
100
AcDbSpline
 70
8
 71
3
 72
8
 73
4
 74
0
 40
0
 40
0
 40
0
 40
0
 40
1
 40
1
 40
1
 40
1
 10
548.960315
 20
-12.171462
 30
0.0
 10
554.439685
 20
-12.171462
 30
0.0
 10
558.881575
 20
-16.613352
 30
0.0
 10
558.881575
 20
-22.092722
 30
0.0
  0
SPLINE
  5
19c
100
AcDbEntity
  8
0
 62
7
100
AcDbSpline
 70
8
 71
3
 72
8
 73
4
 74
0
 40
0
 40
0
 40
0
 40
0
 40
1
 40
1
 40
1
 40
1
 10
558.881575
 20
-22.092722
 30
0.0
 10
558.881575
 20
-27.572092
 30
0.0
 10
554.439685
 20
-32.013982
 30
0.0
 10
548.960315
 20
-32.013982
 30
0.0
  0
LWPOLYLINE
  5
19d
100
AcDbEntity
  8
0
 62
7
100
AcDbPolyline
 90
2
 70
0
 10
506.440630
 20
-12.171462
 30
0.0
 10
548.960315
 20
-12.171462
 30
0.0
  0
SPLINE
  5
19e
100
AcDbEntity
  8
0
 62
7
100
AcDbSpline
 70
8
 71
3
 72
8
 73
4
 74
0
 40
0
 40
0
 40
0
 40
0
 40
1
 40
1
 40
1
 40
1
 10
559.590236
 20
-134.291682
 30
0.0
 10
559.590236
 20
-137.031367
 30
0.0
 10
557.369291
 20
-139.252312
 30
0.0
 10
554.629606
 20
-139.252312
 30
0.0
  0
SPLINE
  5
19f
100
AcDbEntity
  8
0
 62
7
100
AcDbSpline
 70
8
 71
3
 72
8
 73
4
 74
0
 40
0
 40
0
 40
0
 40
0
 40
1
 40
1
 40
1
 40
1
 10
554.629606
 20
-139.252312
 30
0.0
 10
551.889921
 20
-139.252312
 30
0.0
 10
549.668976
 20
-137.031367
 30
0.0
 10
549.668976
 20
-134.291682
 30
0.0
  0
SPLINE
  5
1a0
100
AcDbEntity
  8
0
 62
7
100
AcDbSpline
 70
8
 71
3
 72
8
 73
4
 74
0
 40
0
 40
0
 40
0
 40
0
 40
1
 40
1
 40
1
 40
1
 10
549.668976
 20
-134.291682
 30
0.0
 10
549.668976
 20
-131.551997
 30
0.0
 10
551.889921
 20
-129.331052
 30
0.0
 10
554.629606
 20
-129.331052
 30
0.0
  0
SPLINE
  5
1a1
100
AcDbEntity
  8
0
 62
7
100
AcDbSpline
 70
8
 71
3
 72
8
 73
4
 74
0
 40
0
 40
0
 40
0
 40
0
 40
1
 40
1
 40
1
 40
1
 10
554.629606
 20
-129.331052
 30
0.0
 10
557.369291
 20
-129.331052
 30
0.0
 10
559.590236
 20
-131.551997
 30
0.0
 10
559.590236
 20
-134.291682
 30
0.0
  0
SPLINE
  5
1a2
100
AcDbEntity
  8
0
 62
7
100
AcDbSpline
 70
8
 71
3
 72
8
 73
4
 74
0
 40
0
 40
0
 40
0
 40
0
 40
1
 40
1
 40
1
 40
1
 10
546.834331
 20
101.214365
 30
0.0
 10
546.834331
 20
98.474680
 30
0.0
 10
544.613386
 20
96.253735
 30
0.0
 10
541.873701
 20
96.253735
 30
0.0
  0
SPLINE
  5
1a3
100
AcDbEntity
  8
0
 62
7
100
AcDbSpline
 70
8
 71
3
 72
8
 73
4
 74
0
 40
0
 40
0
 40
0
 40
0
 40
1
 40
1
 40
1
 40
1
 10
541.873701
 20
96.253735
 30
0.0
 10
539.134016
 20
96.253735
 30
0.0
 10
536.913071
 20
98.474680
 30
0.0
 10
536.913071
 20
101.214365
 30
0.0
  0
SPLINE
  5
1a4
100
AcDbEntity
  8
0
 62
7
100
AcDbSpline
 70
8
 71
3
 72
8
 73
4
 74
0
 40
0
 40
0
 40
0
 40
0
 40
1
 40
1
 40
1
 40
1
 10
536.913071
 20
101.214365
 30
0.0
 10
536.913071
 20
103.954050
 30
0.0
 10
539.134016
 20
106.174995
 30
0.0
 10
541.873701
 20
106.174995
 30
0.0
  0
SPLINE
  5
1a5
100
AcDbEntity
  8
0
 62
7
100
AcDbSpline
 70
8
 71
3
 72
8
 73
4
 74
0
 40
0
 40
0
 40
0
 40
0
 40
1
 40
1
 40
1
 40
1
 10
541.873701
 20
106.174995
 30
0.0
 10
544.613386
 20
106.174995
 30
0.0
 10
546.834331
 20
103.954050
 30
0.0
 10
546.834331
 20
101.214365
 30
0.0
  0
SPLINE
  5
1a6
100
AcDbEntity
  8
0
 62
7
100
AcDbSpline
 70
8
 71
3
 72
8
 73
4
 74
0
 40
0
 40
0
 40
0
 40
0
 40
1
 40
1
 40
1
 40
1
 10
531.243780
 20
136.640633
 30
0.0
 10
531.243780
 20
133.900948
 30
0.0
 10
529.022835
 20
131.680003
 30
0.0
 10
526.283150
 20
131.680003
 30
0.0
  0
SPLINE
  5
1a7
100
AcDbEntity
  8
0
 62
7
100
AcDbSpline
 70
8
 71
3
 72
8
 73
4
 74
0
 40
0
 40
0
 40
0
 40
0
 40
1
 40
1
 40
1
 40
1
 10
526.283150
 20
131.680003
 30
0.0
 10
523.543465
 20
131.680003
 30
0.0
 10
521.322520
 20
133.900948
 30
0.0
 10
521.322520
 20
136.640633
 30
0.0
  0
SPLINE
  5
1a8
100
AcDbEntity
  8
0
 62
7
100
AcDbSpline
 70
8
 71
3
 72
8
 73
4
 74
0
 40
0
 40
0
 40
0
 40
0
 40
1
 40
1
 40
1
 40
1
 10
521.322520
 20
136.640633
 30
0.0
 10
521.322520
 20
139.380318
 30
0.0
 10
523.543465
 20
141.601263
 30
0.0
 10
526.283150
 20
141.601263
 30
0.0
  0
SPLINE
  5
1a9
100
AcDbEntity
  8
0
 62
7
100
AcDbSpline
 70
8
 71
3
 72
8
 73
4
 74
0
 40
0
 40
0
 40
0
 40
0
 40
1
 40
1
 40
1
 40
1
 10
526.283150
 20
141.601263
 30
0.0
 10
529.022835
 20
141.601263
 30
0.0
 10
531.243780
 20
139.380318
 30
0.0
 10
531.243780
 20
136.640633
 30
0.0
  0
SPLINE
  5
1aa
100
AcDbEntity
  8
0
 62
7
100
AcDbSpline
 70
8
 71
3
 72
8
 73
4
 74
0
 40
0
 40
0
 40
0
 40
0
 40
1
 40
1
 40
1
 40
1
 10
304.472126
 20
136.640633
 30
0.0
 10
304.472126
 20
133.900948
 30
0.0
 10
302.251181
 20
131.680003
 30
0.0
 10
299.511496
 20
131.680003
 30
0.0
  0
SPLINE
  5
1ab
100
AcDbEntity
  8
0
 62
7
100
AcDbSpline
 70
8
 71
3
 72
8
 73
4
 74
0
 40
0
 40
0
 40
0
 40
0
 40
1
 40
1
 40
1
 40
1
 10
299.511496
 20
131.680003
 30
0.0
 10
296.771811
 20
131.680003
 30
0.0
 10
294.550866
 20
133.900948
 30
0.0
 10
294.550866
 20
136.640633
 30
0.0
  0
SPLINE
  5
1ac
100
AcDbEntity
  8
0
 62
7
100
AcDbSpline
 70
8
 71
3
 72
8
 73
4
 74
0
 40
0
 40
0
 40
0
 40
0
 40
1
 40
1
 40
1
 40
1
 10
294.550866
 20
136.640633
 30
0.0
 10
294.550866
 20
139.380318
 30
0.0
 10
296.771811
 20
141.601263
 30
0.0
 10
299.511496
 20
141.601263
 30
0.0
  0
SPLINE
  5
1ad
100
AcDbEntity
  8
0
 62
7
100
AcDbSpline
 70
8
 71
3
 72
8
 73
4
 74
0
 40
0
 40
0
 40
0
 40
0
 40
1
 40
1
 40
1
 40
1
 10
299.511496
 20
141.601263
 30
0.0
 10
302.251181
 20
141.601263
 30
0.0
 10
304.472126
 20
139.380318
 30
0.0
 10
304.472126
 20
136.640633
 30
0.0
  0
SPLINE
  5
1ae
100
AcDbEntity
  8
0
 62
7
100
AcDbSpline
 70
8
 71
3
 72
8
 73
4
 74
0
 40
0
 40
0
 40
0
 40
0
 40
1
 40
1
 40
1
 40
1
 10
375.338268
 20
-151.069100
 30
0.0
 10
375.338268
 20
-153.808785
 30
0.0
 10
373.117323
 20
-156.029730
 30
0.0
 10
370.377638
 20
-156.029730
 30
0.0
  0
SPLINE
  5
1af
100
AcDbEntity
  8
0
 62
7
100
AcDbSpline
 70
8
 71
3
 72
8
 73
4
 74
0
 40
0
 40
0
 40
0
 40
0
 40
1
 40
1
 40
1
 40
1
 10
370.377638
 20
-156.029730
 30
0.0
 10
367.637953
 20
-156.029730
 30
0.0
 10
365.417008
 20
-153.808785
 30
0.0
 10
365.417008
 20
-151.069100
 30
0.0
  0
SPLINE
  5
1b0
100
AcDbEntity
  8
0
 62
7
100
AcDbSpline
 70
8
 71
3
 72
8
 73
4
 74
0
 40
0
 40
0
 40
0
 40
0
 40
1
 40
1
 40
1
 40
1
 10
365.417008
 20
-151.069100
 30
0.0
 10
365.417008
 20
-148.329415
 30
0.0
 10
367.637953
 20
-146.108470
 30
0.0
 10
370.377638
 20
-146.108470
 30
0.0
  0
SPLINE
  5
1b1
100
AcDbEntity
  8
0
 62
7
100
AcDbSpline
 70
8
 71
3
 72
8
 73
4
 74
0
 40
0
 40
0
 40
0
 40
0
 40
1
 40
1
 40
1
 40
1
 10
370.377638
 20
-146.108470
 30
0.0
 10
373.117323
 20
-146.108470
 30
0.0
 10
375.338268
 20
-148.329415
 30
0.0
 10
375.338268
 20
-151.069100
 30
0.0
  0
SPLINE
  5
1b2
100
AcDbEntity
  8
0
 62
7
100
AcDbSpline
 70
8
 71
3
 72
8
 73
4
 74
0
 40
0
 40
0
 40
0
 40
0
 40
1
 40
1
 40
1
 40
1
 10
314.393386
 20
101.214365
 30
0.0
 10
314.393386
 20
98.474680
 30
0.0
 10
312.172441
 20
96.253735
 30
0.0
 10
309.432756
 20
96.253735
 30
0.0
  0
SPLINE
  5
1b3
100
AcDbEntity
  8
0
 62
7
100
AcDbSpline
 70
8
 71
3
 72
8
 73
4
 74
0
 40
0
 40
0
 40
0
 40
0
 40
1
 40
1
 40
1
 40
1
 10
309.432756
 20
96.253735
 30
0.0
 10
306.693071
 20
96.253735
 30
0.0
 10
304.472126
 20
98.474680
 30
0.0
 10
304.472126
 20
101.214365
 30
0.0
  0
SPLINE
  5
1b4
100
AcDbEntity
  8
0
 62
7
100
AcDbSpline
 70
8
 71
3
 72
8
 73
4
 74
0
 40
0
 40
0
 40
0
 40
0
 40
1
 40
1
 40
1
 40
1
 10
304.472126
 20
101.214365
 30
0.0
 10
304.472126
 20
103.954050
 30
0.0
 10
306.693071
 20
106.174995
 30
0.0
 10
309.432756
 20
106.174995
 30
0.0
  0
SPLINE
  5
1b5
100
AcDbEntity
  8
0
 62
7
100
AcDbSpline
 70
8
 71
3
 72
8
 73
4
 74
0
 40
0
 40
0
 40
0
 40
0
 40
1
 40
1
 40
1
 40
1
 10
309.432756
 20
106.174995
 30
0.0
 10
312.172441
 20
106.174995
 30
0.0
 10
314.393386
 20
103.954050
 30
0.0
 10
314.393386
 20
101.214365
 30
0.0
  0
SPLINE
  5
1b6
100
AcDbEntity
  8
0
 62
7
100
AcDbSpline
 70
8
 71
3
 72
8
 73
4
 74
0
 40
0
 40
0
 40
0
 40
0
 40
1
 40
1
 40
1
 40
1
 10
288.881575
 20
101.214365
 30
0.0
 10
288.881575
 20
98.474680
 30
0.0
 10
286.660630
 20
96.253735
 30
0.0
 10
283.920945
 20
96.253735
 30
0.0
  0
SPLINE
  5
1b7
100
AcDbEntity
  8
0
 62
7
100
AcDbSpline
 70
8
 71
3
 72
8
 73
4
 74
0
 40
0
 40
0
 40
0
 40
0
 40
1
 40
1
 40
1
 40
1
 10
283.920945
 20
96.253735
 30
0.0
 10
281.181260
 20
96.253735
 30
0.0
 10
278.960315
 20
98.474680
 30
0.0
 10
278.960315
 20
101.214365
 30
0.0
  0
SPLINE
  5
1b8
100
AcDbEntity
  8
0
 62
7
100
AcDbSpline
 70
8
 71
3
 72
8
 73
4
 74
0
 40
0
 40
0
 40
0
 40
0
 40
1
 40
1
 40
1
 40
1
 10
278.960315
 20
101.214365
 30
0.0
 10
278.960315
 20
103.954050
 30
0.0
 10
281.181260
 20
106.174995
 30
0.0
 10
283.920945
 20
106.174995
 30
0.0
  0
SPLINE
  5
1b9
100
AcDbEntity
  8
0
 62
7
100
AcDbSpline
 70
8
 71
3
 72
8
 73
4
 74
0
 40
0
 40
0
 40
0
 40
0
 40
1
 40
1
 40
1
 40
1
 10
283.920945
 20
106.174995
 30
0.0
 10
286.660630
 20
106.174995
 30
0.0
 10
288.881575
 20
103.954050
 30
0.0
 10
288.881575
 20
101.214365
 30
0.0
  0
SPLINE
  5
1ba
100
AcDbEntity
  8
0
 62
7
100
AcDbSpline
 70
8
 71
3
 72
8
 73
4
 74
0
 40
0
 40
0
 40
0
 40
0
 40
1
 40
1
 40
1
 40
1
 10
460.377638
 20
-83.037604
 30
0.0
 10
460.377638
 20
-85.777289
 30
0.0
 10
458.156693
 20
-87.998233
 30
0.0
 10
455.417008
 20
-87.998233
 30
0.0
  0
SPLINE
  5
1bb
100
AcDbEntity
  8
0
 62
7
100
AcDbSpline
 70
8
 71
3
 72
8
 73
4
 74
0
 40
0
 40
0
 40
0
 40
0
 40
1
 40
1
 40
1
 40
1
 10
455.417008
 20
-87.998233
 30
0.0
 10
452.677323
 20
-87.998233
 30
0.0
 10
450.456378
 20
-85.777289
 30
0.0
 10
450.456378
 20
-83.037604
 30
0.0
  0
SPLINE
  5
1bc
100
AcDbEntity
  8
0
 62
7
100
AcDbSpline
 70
8
 71
3
 72
8
 73
4
 74
0
 40
0
 40
0
 40
0
 40
0
 40
1
 40
1
 40
1
 40
1
 10
450.456378
 20
-83.037604
 30
0.0
 10
450.456378
 20
-80.297919
 30
0.0
 10
452.677323
 20
-78.076974
 30
0.0
 10
455.417008
 20
-78.076974
 30
0.0
  0
SPLINE
  5
1bd
100
AcDbEntity
  8
0
 62
7
100
AcDbSpline
 70
8
 71
3
 72
8
 73
4
 74
0
 40
0
 40
0
 40
0
 40
0
 40
1
 40
1
 40
1
 40
1
 10
455.417008
 20
-78.076974
 30
0.0
 10
458.156693
 20
-78.076974
 30
0.0
 10
460.377638
 20
-80.297919
 30
0.0
 10
460.377638
 20
-83.037604
 30
0.0
  0
SPLINE
  5
1be
100
AcDbEntity
  8
0
 62
7
100
AcDbSpline
 70
8
 71
3
 72
8
 73
4
 74
0
 40
0
 40
0
 40
0
 40
0
 40
1
 40
1
 40
1
 40
1
 10
521.322520
 20
2.001767
 30
0.0
 10
521.322520
 20
-0.737919
 30
0.0
 10
519.101575
 20
-2.958863
 30
0.0
 10
516.361890
 20
-2.958863
 30
0.0
  0
SPLINE
  5
1bf
100
AcDbEntity
  8
0
 62
7
100
AcDbSpline
 70
8
 71
3
 72
8
 73
4
 74
0
 40
0
 40
0
 40
0
 40
0
 40
1
 40
1
 40
1
 40
1
 10
516.361890
 20
-2.958863
 30
0.0
 10
513.622205
 20
-2.958863
 30
0.0
 10
511.401260
 20
-0.737919
 30
0.0
 10
511.401260
 20
2.001767
 30
0.0
  0
SPLINE
  5
1c0
100
AcDbEntity
  8
0
 62
7
100
AcDbSpline
 70
8
 71
3
 72
8
 73
4
 74
0
 40
0
 40
0
 40
0
 40
0
 40
1
 40
1
 40
1
 40
1
 10
511.401260
 20
2.001767
 30
0.0
 10
511.401260
 20
4.741452
 30
0.0
 10
513.622205
 20
6.962396
 30
0.0
 10
516.361890
 20
6.962396
 30
0.0
  0
SPLINE
  5
1c1
100
AcDbEntity
  8
0
 62
7
100
AcDbSpline
 70
8
 71
3
 72
8
 73
4
 74
0
 40
0
 40
0
 40
0
 40
0
 40
1
 40
1
 40
1
 40
1
 10
516.361890
 20
6.962396
 30
0.0
 10
519.101575
 20
6.962396
 30
0.0
 10
521.322520
 20
4.741452
 30
0.0
 10
521.322520
 20
2.001767
 30
0.0
  0
SPLINE
  5
1c2
100
AcDbEntity
  8
0
 62
7
100
AcDbSpline
 70
8
 71
3
 72
8
 73
4
 74
0
 40
0
 40
0
 40
0
 40
0
 40
1
 40
1
 40
1
 40
1
 10
314.393386
 20
2.001767
 30
0.0
 10
314.393386
 20
-0.737919
 30
0.0
 10
312.172441
 20
-2.958863
 30
0.0
 10
309.432756
 20
-2.958863
 30
0.0
  0
SPLINE
  5
1c3
100
AcDbEntity
  8
0
 62
7
100
AcDbSpline
 70
8
 71
3
 72
8
 73
4
 74
0
 40
0
 40
0
 40
0
 40
0
 40
1
 40
1
 40
1
 40
1
 10
309.432756
 20
-2.958863
 30
0.0
 10
306.693071
 20
-2.958863
 30
0.0
 10
304.472126
 20
-0.737919
 30
0.0
 10
304.472126
 20
2.001767
 30
0.0
  0
SPLINE
  5
1c4
100
AcDbEntity
  8
0
 62
7
100
AcDbSpline
 70
8
 71
3
 72
8
 73
4
 74
0
 40
0
 40
0
 40
0
 40
0
 40
1
 40
1
 40
1
 40
1
 10
304.472126
 20
2.001767
 30
0.0
 10
304.472126
 20
4.741452
 30
0.0
 10
306.693071
 20
6.962396
 30
0.0
 10
309.432756
 20
6.962396
 30
0.0
  0
SPLINE
  5
1c5
100
AcDbEntity
  8
0
 62
7
100
AcDbSpline
 70
8
 71
3
 72
8
 73
4
 74
0
 40
0
 40
0
 40
0
 40
0
 40
1
 40
1
 40
1
 40
1
 10
309.432756
 20
6.962396
 30
0.0
 10
312.172441
 20
6.962396
 30
0.0
 10
314.393386
 20
4.741452
 30
0.0
 10
314.393386
 20
2.001767
 30
0.0
  0
SPLINE
  5
1c6
100
AcDbEntity
  8
0
 62
7
100
AcDbSpline
 70
8
 71
3
 72
8
 73
4
 74
0
 40
0
 40
0
 40
0
 40
0
 40
1
 40
1
 40
1
 40
1
 10
375.338268
 20
-83.037604
 30
0.0
 10
375.338268
 20
-85.777289
 30
0.0
 10
373.117323
 20
-87.998233
 30
0.0
 10
370.377638
 20
-87.998233
 30
0.0
  0
SPLINE
  5
1c7
100
AcDbEntity
  8
0
 62
7
100
AcDbSpline
 70
8
 71
3
 72
8
 73
4
 74
0
 40
0
 40
0
 40
0
 40
0
 40
1
 40
1
 40
1
 40
1
 10
370.377638
 20
-87.998233
 30
0.0
 10
367.637953
 20
-87.998233
 30
0.0
 10
365.417008
 20
-85.777289
 30
0.0
 10
365.417008
 20
-83.037604
 30
0.0
  0
SPLINE
  5
1c8
100
AcDbEntity
  8
0
 62
7
100
AcDbSpline
 70
8
 71
3
 72
8
 73
4
 74
0
 40
0
 40
0
 40
0
 40
0
 40
1
 40
1
 40
1
 40
1
 10
365.417008
 20
-83.037604
 30
0.0
 10
365.417008
 20
-80.297919
 30
0.0
 10
367.637953
 20
-78.076974
 30
0.0
 10
370.377638
 20
-78.076974
 30
0.0
  0
SPLINE
  5
1c9
100
AcDbEntity
  8
0
 62
7
100
AcDbSpline
 70
8
 71
3
 72
8
 73
4
 74
0
 40
0
 40
0
 40
0
 40
0
 40
1
 40
1
 40
1
 40
1
 10
370.377638
 20
-78.076974
 30
0.0
 10
373.117323
 20
-78.076974
 30
0.0
 10
375.338268
 20
-80.297919
 30
0.0
 10
375.338268
 20
-83.037604
 30
0.0
  0
SPLINE
  5
1ca
100
AcDbEntity
  8
0
 62
7
100
AcDbSpline
 70
8
 71
3
 72
8
 73
4
 74
0
 40
0
 40
0
 40
0
 40
0
 40
1
 40
1
 40
1
 40
1
 10
460.377638
 20
-151.069100
 30
0.0
 10
460.377638
 20
-153.808785
 30
0.0
 10
458.156693
 20
-156.029730
 30
0.0
 10
455.417008
 20
-156.029730
 30
0.0
  0
SPLINE
  5
1cb
100
AcDbEntity
  8
0
 62
7
100
AcDbSpline
 70
8
 71
3
 72
8
 73
4
 74
0
 40
0
 40
0
 40
0
 40
0
 40
1
 40
1
 40
1
 40
1
 10
455.417008
 20
-156.029730
 30
0.0
 10
452.677323
 20
-156.029730
 30
0.0
 10
450.456378
 20
-153.808785
 30
0.0
 10
450.456378
 20
-151.069100
 30
0.0
  0
SPLINE
  5
1cc
100
AcDbEntity
  8
0
 62
7
100
AcDbSpline
 70
8
 71
3
 72
8
 73
4
 74
0
 40
0
 40
0
 40
0
 40
0
 40
1
 40
1
 40
1
 40
1
 10
450.456378
 20
-151.069100
 30
0.0
 10
450.456378
 20
-148.329415
 30
0.0
 10
452.677323
 20
-146.108470
 30
0.0
 10
455.417008
 20
-146.108470
 30
0.0
  0
SPLINE
  5
1cd
100
AcDbEntity
  8
0
 62
7
100
AcDbSpline
 70
8
 71
3
 72
8
 73
4
 74
0
 40
0
 40
0
 40
0
 40
0
 40
1
 40
1
 40
1
 40
1
 10
455.417008
 20
-146.108470
 30
0.0
 10
458.156693
 20
-146.108470
 30
0.0
 10
460.377638
 20
-148.329415
 30
0.0
 10
460.377638
 20
-151.069100
 30
0.0
  0
SPLINE
  5
1ce
100
AcDbEntity
  8
0
 62
7
100
AcDbSpline
 70
8
 71
3
 72
8
 73
4
 74
0
 40
0
 40
0
 40
0
 40
0
 40
1
 40
1
 40
1
 40
1
 10
288.881575
 20
2.001767
 30
0.0
 10
288.881575
 20
-0.737919
 30
0.0
 10
286.660630
 20
-2.958863
 30
0.0
 10
283.920945
 20
-2.958863
 30
0.0
  0
SPLINE
  5
1cf
100
AcDbEntity
  8
0
 62
7
100
AcDbSpline
 70
8
 71
3
 72
8
 73
4
 74
0
 40
0
 40
0
 40
0
 40
0
 40
1
 40
1
 40
1
 40
1
 10
283.920945
 20
-2.958863
 30
0.0
 10
281.181260
 20
-2.958863
 30
0.0
 10
278.960315
 20
-0.737919
 30
0.0
 10
278.960315
 20
2.001767
 30
0.0
  0
SPLINE
  5
1d0
100
AcDbEntity
  8
0
 62
7
100
AcDbSpline
 70
8
 71
3
 72
8
 73
4
 74
0
 40
0
 40
0
 40
0
 40
0
 40
1
 40
1
 40
1
 40
1
 10
278.960315
 20
2.001767
 30
0.0
 10
278.960315
 20
4.741452
 30
0.0
 10
281.181260
 20
6.962396
 30
0.0
 10
283.920945
 20
6.962396
 30
0.0
  0
SPLINE
  5
1d1
100
AcDbEntity
  8
0
 62
7
100
AcDbSpline
 70
8
 71
3
 72
8
 73
4
 74
0
 40
0
 40
0
 40
0
 40
0
 40
1
 40
1
 40
1
 40
1
 10
283.920945
 20
6.962396
 30
0.0
 10
286.660630
 20
6.962396
 30
0.0
 10
288.881575
 20
4.741452
 30
0.0
 10
288.881575
 20
2.001767
 30
0.0
  0
SPLINE
  5
1d2
100
AcDbEntity
  8
0
 62
7
100
AcDbSpline
 70
8
 71
3
 72
8
 73
4
 74
0
 40
0
 40
0
 40
0
 40
0
 40
1
 40
1
 40
1
 40
1
 10
546.834331
 20
2.001767
 30
0.0
 10
546.834331
 20
-0.737919
 30
0.0
 10
544.613386
 20
-2.958863
 30
0.0
 10
541.873701
 20
-2.958863
 30
0.0
  0
SPLINE
  5
1d3
100
AcDbEntity
  8
0
 62
7
100
AcDbSpline
 70
8
 71
3
 72
8
 73
4
 74
0
 40
0
 40
0
 40
0
 40
0
 40
1
 40
1
 40
1
 40
1
 10
541.873701
 20
-2.958863
 30
0.0
 10
539.134016
 20
-2.958863
 30
0.0
 10
536.913071
 20
-0.737919
 30
0.0
 10
536.913071
 20
2.001767
 30
0.0
  0
SPLINE
  5
1d4
100
AcDbEntity
  8
0
 62
7
100
AcDbSpline
 70
8
 71
3
 72
8
 73
4
 74
0
 40
0
 40
0
 40
0
 40
0
 40
1
 40
1
 40
1
 40
1
 10
536.913071
 20
2.001767
 30
0.0
 10
536.913071
 20
4.741452
 30
0.0
 10
539.134016
 20
6.962396
 30
0.0
 10
541.873701
 20
6.962396
 30
0.0
  0
SPLINE
  5
1d5
100
AcDbEntity
  8
0
 62
7
100
AcDbSpline
 70
8
 71
3
 72
8
 73
4
 74
0
 40
0
 40
0
 40
0
 40
0
 40
1
 40
1
 40
1
 40
1
 10
541.873701
 20
6.962396
 30
0.0
 10
544.613386
 20
6.962396
 30
0.0
 10
546.834331
 20
4.741452
 30
0.0
 10
546.834331
 20
2.001767
 30
0.0
  0
SPLINE
  5
1d6
100
AcDbEntity
  8
0
 62
7
100
AcDbSpline
 70
8
 71
3
 72
8
 73
4
 74
0
 40
0
 40
0
 40
0
 40
0
 40
1
 40
1
 40
1
 40
1
 10
521.322520
 20
101.214365
 30
0.0
 10
521.322520
 20
98.474680
 30
0.0
 10
519.101575
 20
96.253735
 30
0.0
 10
516.361890
 20
96.253735
 30
0.0
  0
SPLINE
  5
1d7
100
AcDbEntity
  8
0
 62
7
100
AcDbSpline
 70
8
 71
3
 72
8
 73
4
 74
0
 40
0
 40
0
 40
0
 40
0
 40
1
 40
1
 40
1
 40
1
 10
516.361890
 20
96.253735
 30
0.0
 10
513.622205
 20
96.253735
 30
0.0
 10
511.401260
 20
98.474680
 30
0.0
 10
511.401260
 20
101.214365
 30
0.0
  0
SPLINE
  5
1d8
100
AcDbEntity
  8
0
 62
7
100
AcDbSpline
 70
8
 71
3
 72
8
 73
4
 74
0
 40
0
 40
0
 40
0
 40
0
 40
1
 40
1
 40
1
 40
1
 10
511.401260
 20
101.214365
 30
0.0
 10
511.401260
 20
103.954050
 30
0.0
 10
513.622205
 20
106.174995
 30
0.0
 10
516.361890
 20
106.174995
 30
0.0
  0
SPLINE
  5
1d9
100
AcDbEntity
  8
0
 62
7
100
AcDbSpline
 70
8
 71
3
 72
8
 73
4
 74
0
 40
0
 40
0
 40
0
 40
0
 40
1
 40
1
 40
1
 40
1
 10
516.361890
 20
106.174995
 30
0.0
 10
519.101575
 20
106.174995
 30
0.0
 10
521.322520
 20
103.954050
 30
0.0
 10
521.322520
 20
101.214365
 30
0.0
  0
SPLINE
  5
1da
100
AcDbEntity
  8
0
 62
7
100
AcDbSpline
 70
8
 71
3
 72
8
 73
4
 74
0
 40
0
 40
0
 40
0
 40
0
 40
1
 40
1
 40
1
 40
1
 10
276.125669
 20
-134.291682
 30
0.0
 10
276.125669
 20
-137.031367
 30
0.0
 10
273.904724
 20
-139.252312
 30
0.0
 10
271.165039
 20
-139.252312
 30
0.0
  0
SPLINE
  5
1db
100
AcDbEntity
  8
0
 62
7
100
AcDbSpline
 70
8
 71
3
 72
8
 73
4
 74
0
 40
0
 40
0
 40
0
 40
0
 40
1
 40
1
 40
1
 40
1
 10
271.165039
 20
-139.252312
 30
0.0
 10
268.425354
 20
-139.252312
 30
0.0
 10
266.204409
 20
-137.031367
 30
0.0
 10
266.204409
 20
-134.291682
 30
0.0
  0
SPLINE
  5
1dc
100
AcDbEntity
  8
0
 62
7
100
AcDbSpline
 70
8
 71
3
 72
8
 73
4
 74
0
 40
0
 40
0
 40
0
 40
0
 40
1
 40
1
 40
1
 40
1
 10
266.204409
 20
-134.291682
 30
0.0
 10
266.204409
 20
-131.551997
 30
0.0
 10
268.425354
 20
-129.331052
 30
0.0
 10
271.165039
 20
-129.331052
 30
0.0
  0
SPLINE
  5
1dd
100
AcDbEntity
  8
0
 62
7
100
AcDbSpline
 70
8
 71
3
 72
8
 73
4
 74
0
 40
0
 40
0
 40
0
 40
0
 40
1
 40
1
 40
1
 40
1
 10
271.165039
 20
-129.331052
 30
0.0
 10
273.904724
 20
-129.331052
 30
0.0
 10
276.125669
 20
-131.551997
 30
0.0
 10
276.125669
 20
-134.291682
 30
0.0
  0
SPLINE
  5
1de
100
AcDbEntity
  8
0
 62
7
100
AcDbSpline
 70
8
 71
3
 72
8
 73
4
 74
0
 40
0
 40
0
 40
0
 40
0
 40
1
 40
1
 40
1
 40
1
 10
619.705134
 20
-19.258076
 30
0.0
 10
615.885732
 20
-130.718045
 30
0.0
 10
524.422772
 20
-219.100596
 30
0.0
 10
412.897323
 20
-219.100596
 30
0.0
  0
SPLINE
  5
1df
100
AcDbEntity
  8
0
 62
7
100
AcDbSpline
 70
8
 71
3
 72
8
 73
4
 74
0
 40
0
 40
0
 40
0
 40
0
 40
1
 40
1
 40
1
 40
1
 10
412.897323
 20
-219.100596
 30
0.0
 10
301.371874
 20
-219.100596
 30
0.0
 10
209.908913
 20
-130.718045
 30
0.0
 10
206.089512
 20
-19.258076
 30
0.0
  0
LWPOLYLINE
  5
1e0
100
AcDbEntity
  8
0
 62
7
100
AcDbPolyline
 90
2
 70
0
 10
548.960315
 20
-32.013982
 30
0.0
 10
506.440630
 20
-32.013982
 30
0.0
  0
SPLINE
  5
1e1
100
AcDbEntity
  8
0
 62
7
100
AcDbSpline
 70
8
 71
3
 72
8
 73
4
 74
0
 40
0
 40
0
 40
0
 40
0
 40
1
 40
1
 40
1
 40
1
 10
251.322520
 20
-10.754139
 30
0.0
 10
251.322520
 20
-15.450722
 30
0.0
 10
247.515307
 20
-19.258076
 30
0.0
 10
242.818583
 20
-19.258076
 30
0.0
  0
SPLINE
  5
1e2
100
AcDbEntity
  8
0
 62
7
100
AcDbSpline
 70
8
 71
3
 72
8
 73
4
 74
0
 40
0
 40
0
 40
0
 40
0
 40
1
 40
1
 40
1
 40
1
 10
251.322520
 20
117.108223
 30
0.0
 10
290.592283
 20
166.187845
 30
0.0
 10
350.041039
 20
194.757672
 30
0.0
 10
412.897323
 20
194.757672
 30
0.0
  0
SPLINE
  5
1e3
100
AcDbEntity
  8
0
 62
7
100
AcDbSpline
 70
8
 71
3
 72
8
 73
4
 74
0
 40
0
 40
0
 40
0
 40
0
 40
1
 40
1
 40
1
 40
1
 10
412.897323
 20
194.757672
 30
0.0
 10
475.753606
 20
194.757672
 30
0.0
 10
535.202362
 20
166.187845
 30
0.0
 10
574.472126
 20
117.108223
 30
0.0
  0
LWPOLYLINE
  5
1e4
100
AcDbEntity
  8
0
 62
7
100
AcDbPolyline
 90
2
 70
0
 10
251.322520
 20
-10.754139
 30
0.0
 10
251.322520
 20
117.108223
 30
0.0
  0
LWPOLYLINE
  5
1e5
100
AcDbEntity
  8
0
 62
7
100
AcDbPolyline
 90
2
 70
0
 10
206.089512
 20
-19.258076
 30
0.0
 10
242.818583
 20
-19.258076
 30
0.0
  0
SPLINE
  5
1e6
100
AcDbEntity
  8
0
 62
7
100
AcDbSpline
 70
8
 71
3
 72
8
 73
4
 74
0
 40
0
 40
0
 40
0
 40
0
 40
1
 40
1
 40
1
 40
1
 10
582.976063
 20
-19.258076
 30
0.0
 10
578.279339
 20
-19.258076
 30
0.0
 10
574.472126
 20
-15.450722
 30
0.0
 10
574.472126
 20
-10.754139
 30
0.0
  0
LWPOLYLINE
  5
1e7
100
AcDbEntity
  8
0
 62
7
100
AcDbPolyline
 90
2
 70
0
 10
574.472126
 20
-10.754139
 30
0.0
 10
574.472126
 20
117.108223
 30
0.0
  0
SPLINE
  5
1e8
100
AcDbEntity
  8
0
 62
7
100
AcDbSpline
 70
8
 71
3
 72
8
 73
4
 74
0
 40
0
 40
0
 40
0
 40
0
 40
1
 40
1
 40
1
 40
1
 10
546.834331
 20
101.214365
 30
0.0
 10
546.834331
 20
98.474680
 30
0.0
 10
544.613386
 20
96.253735
 30
0.0
 10
541.873701
 20
96.253735
 30
0.0
  0
SPLINE
  5
1e9
100
AcDbEntity
  8
0
 62
7
100
AcDbSpline
 70
8
 71
3
 72
8
 73
4
 74
0
 40
0
 40
0
 40
0
 40
0
 40
1
 40
1
 40
1
 40
1
 10
541.873701
 20
96.253735
 30
0.0
 10
539.134016
 20
96.253735
 30
0.0
 10
536.913071
 20
98.474680
 30
0.0
 10
536.913071
 20
101.214365
 30
0.0
  0
SPLINE
  5
1ea
100
AcDbEntity
  8
0
 62
7
100
AcDbSpline
 70
8
 71
3
 72
8
 73
4
 74
0
 40
0
 40
0
 40
0
 40
0
 40
1
 40
1
 40
1
 40
1
 10
536.913071
 20
101.214365
 30
0.0
 10
536.913071
 20
103.954050
 30
0.0
 10
539.134016
 20
106.174995
 30
0.0
 10
541.873701
 20
106.174995
 30
0.0
  0
SPLINE
  5
1eb
100
AcDbEntity
  8
0
 62
7
100
AcDbSpline
 70
8
 71
3
 72
8
 73
4
 74
0
 40
0
 40
0
 40
0
 40
0
 40
1
 40
1
 40
1
 40
1
 10
541.873701
 20
106.174995
 30
0.0
 10
544.613386
 20
106.174995
 30
0.0
 10
546.834331
 20
103.954050
 30
0.0
 10
546.834331
 20
101.214365
 30
0.0
  0
SPLINE
  5
1ec
100
AcDbEntity
  8
0
 62
7
100
AcDbSpline
 70
8
 71
3
 72
8
 73
4
 74
0
 40
0
 40
0
 40
0
 40
0
 40
1
 40
1
 40
1
 40
1
 10
546.834331
 20
2.001767
 30
0.0
 10
546.834331
 20
-0.737919
 30
0.0
 10
544.613386
 20
-2.958863
 30
0.0
 10
541.873701
 20
-2.958863
 30
0.0
  0
SPLINE
  5
1ed
100
AcDbEntity
  8
0
 62
7
100
AcDbSpline
 70
8
 71
3
 72
8
 73
4
 74
0
 40
0
 40
0
 40
0
 40
0
 40
1
 40
1
 40
1
 40
1
 10
541.873701
 20
-2.958863
 30
0.0
 10
539.134016
 20
-2.958863
 30
0.0
 10
536.913071
 20
-0.737919
 30
0.0
 10
536.913071
 20
2.001767
 30
0.0
  0
SPLINE
  5
1ee
100
AcDbEntity
  8
0
 62
7
100
AcDbSpline
 70
8
 71
3
 72
8
 73
4
 74
0
 40
0
 40
0
 40
0
 40
0
 40
1
 40
1
 40
1
 40
1
 10
536.913071
 20
2.001767
 30
0.0
 10
536.913071
 20
4.741452
 30
0.0
 10
539.134016
 20
6.962396
 30
0.0
 10
541.873701
 20
6.962396
 30
0.0
  0
SPLINE
  5
1ef
100
AcDbEntity
  8
0
 62
7
100
AcDbSpline
 70
8
 71
3
 72
8
 73
4
 74
0
 40
0
 40
0
 40
0
 40
0
 40
1
 40
1
 40
1
 40
1
 10
541.873701
 20
6.962396
 30
0.0
 10
544.613386
 20
6.962396
 30
0.0
 10
546.834331
 20
4.741452
 30
0.0
 10
546.834331
 20
2.001767
 30
0.0
  0
SPLINE
  5
1f0
100
AcDbEntity
  8
0
 62
7
100
AcDbSpline
 70
8
 71
3
 72
8
 73
4
 74
0
 40
0
 40
0
 40
0
 40
0
 40
1
 40
1
 40
1
 40
1
 10
521.322520
 20
2.001767
 30
0.0
 10
521.322520
 20
-0.737919
 30
0.0
 10
519.101575
 20
-2.958863
 30
0.0
 10
516.361890
 20
-2.958863
 30
0.0
  0
SPLINE
  5
1f1
100
AcDbEntity
  8
0
 62
7
100
AcDbSpline
 70
8
 71
3
 72
8
 73
4
 74
0
 40
0
 40
0
 40
0
 40
0
 40
1
 40
1
 40
1
 40
1
 10
516.361890
 20
-2.958863
 30
0.0
 10
513.622205
 20
-2.958863
 30
0.0
 10
511.401260
 20
-0.737919
 30
0.0
 10
511.401260
 20
2.001767
 30
0.0
  0
SPLINE
  5
1f2
100
AcDbEntity
  8
0
 62
7
100
AcDbSpline
 70
8
 71
3
 72
8
 73
4
 74
0
 40
0
 40
0
 40
0
 40
0
 40
1
 40
1
 40
1
 40
1
 10
511.401260
 20
2.001767
 30
0.0
 10
511.401260
 20
4.741452
 30
0.0
 10
513.622205
 20
6.962396
 30
0.0
 10
516.361890
 20
6.962396
 30
0.0
  0
SPLINE
  5
1f3
100
AcDbEntity
  8
0
 62
7
100
AcDbSpline
 70
8
 71
3
 72
8
 73
4
 74
0
 40
0
 40
0
 40
0
 40
0
 40
1
 40
1
 40
1
 40
1
 10
516.361890
 20
6.962396
 30
0.0
 10
519.101575
 20
6.962396
 30
0.0
 10
521.322520
 20
4.741452
 30
0.0
 10
521.322520
 20
2.001767
 30
0.0
  0
SPLINE
  5
1f4
100
AcDbEntity
  8
0
 62
7
100
AcDbSpline
 70
8
 71
3
 72
8
 73
4
 74
0
 40
0
 40
0
 40
0
 40
0
 40
1
 40
1
 40
1
 40
1
 10
559.590236
 20
-134.291682
 30
0.0
 10
559.590236
 20
-137.031367
 30
0.0
 10
557.369291
 20
-139.252312
 30
0.0
 10
554.629606
 20
-139.252312
 30
0.0
  0
SPLINE
  5
1f5
100
AcDbEntity
  8
0
 62
7
100
AcDbSpline
 70
8
 71
3
 72
8
 73
4
 74
0
 40
0
 40
0
 40
0
 40
0
 40
1
 40
1
 40
1
 40
1
 10
554.629606
 20
-139.252312
 30
0.0
 10
551.889921
 20
-139.252312
 30
0.0
 10
549.668976
 20
-137.031367
 30
0.0
 10
549.668976
 20
-134.291682
 30
0.0
  0
SPLINE
  5
1f6
100
AcDbEntity
  8
0
 62
7
100
AcDbSpline
 70
8
 71
3
 72
8
 73
4
 74
0
 40
0
 40
0
 40
0
 40
0
 40
1
 40
1
 40
1
 40
1
 10
549.668976
 20
-134.291682
 30
0.0
 10
549.668976
 20
-131.551997
 30
0.0
 10
551.889921
 20
-129.331052
 30
0.0
 10
554.629606
 20
-129.331052
 30
0.0
  0
SPLINE
  5
1f7
100
AcDbEntity
  8
0
 62
7
100
AcDbSpline
 70
8
 71
3
 72
8
 73
4
 74
0
 40
0
 40
0
 40
0
 40
0
 40
1
 40
1
 40
1
 40
1
 10
554.629606
 20
-129.331052
 30
0.0
 10
557.369291
 20
-129.331052
 30
0.0
 10
559.590236
 20
-131.551997
 30
0.0
 10
559.590236
 20
-134.291682
 30
0.0
  0
SPLINE
  5
1f8
100
AcDbEntity
  8
0
 62
7
100
AcDbSpline
 70
8
 71
3
 72
8
 73
4
 74
0
 40
0
 40
0
 40
0
 40
0
 40
1
 40
1
 40
1
 40
1
 10
506.440630
 20
-32.013982
 30
0.0
 10
500.961260
 20
-32.013982
 30
0.0
 10
496.519370
 20
-27.572092
 30
0.0
 10
496.519370
 20
-22.092722
 30
0.0
  0
SPLINE
  5
1f9
100
AcDbEntity
  8
0
 62
7
100
AcDbSpline
 70
8
 71
3
 72
8
 73
4
 74
0
 40
0
 40
0
 40
0
 40
0
 40
1
 40
1
 40
1
 40
1
 10
496.519370
 20
-22.092722
 30
0.0
 10
496.519370
 20
-16.613352
 30
0.0
 10
500.961260
 20
-12.171462
 30
0.0
 10
506.440630
 20
-12.171462
 30
0.0
  0
LWPOLYLINE
  5
1fa
100
AcDbEntity
  8
0
 62
7
100
AcDbPolyline
 90
2
 70
0
 10
619.705134
 20
-19.258076
 30
0.0
 10
582.976063
 20
-19.258076
 30
0.0
  0
SPLINE
  5
1fb
100
AcDbEntity
  8
0
 62
7
100
AcDbSpline
 70
8
 71
3
 72
8
 73
4
 74
0
 40
0
 40
0
 40
0
 40
0
 40
1
 40
1
 40
1
 40
1
 10
548.960315
 20
-12.171462
 30
0.0
 10
554.439685
 20
-12.171462
 30
0.0
 10
558.881575
 20
-16.613352
 30
0.0
 10
558.881575
 20
-22.092722
 30
0.0
  0
SPLINE
  5
1fc
100
AcDbEntity
  8
0
 62
7
100
AcDbSpline
 70
8
 71
3
 72
8
 73
4
 74
0
 40
0
 40
0
 40
0
 40
0
 40
1
 40
1
 40
1
 40
1
 10
558.881575
 20
-22.092722
 30
0.0
 10
558.881575
 20
-27.572092
 30
0.0
 10
554.439685
 20
-32.013982
 30
0.0
 10
548.960315
 20
-32.013982
 30
0.0
  0
LWPOLYLINE
  5
1fd
100
AcDbEntity
  8
0
 62
7
100
AcDbPolyline
 90
2
 70
0
 10
506.440630
 20
-12.171462
 30
0.0
 10
548.960315
 20
-12.171462
 30
0.0
  0
SPLINE
  5
1fe
100
AcDbEntity
  8
0
 62
7
100
AcDbSpline
 70
8
 71
3
 72
8
 73
4
 74
0
 40
0
 40
0
 40
0
 40
0
 40
1
 40
1
 40
1
 40
1
 10
521.322520
 20
101.214365
 30
0.0
 10
521.322520
 20
98.474680
 30
0.0
 10
519.101575
 20
96.253735
 30
0.0
 10
516.361890
 20
96.253735
 30
0.0
  0
SPLINE
  5
1ff
100
AcDbEntity
  8
0
 62
7
100
AcDbSpline
 70
8
 71
3
 72
8
 73
4
 74
0
 40
0
 40
0
 40
0
 40
0
 40
1
 40
1
 40
1
 40
1
 10
516.361890
 20
96.253735
 30
0.0
 10
513.622205
 20
96.253735
 30
0.0
 10
511.401260
 20
98.474680
 30
0.0
 10
511.401260
 20
101.214365
 30
0.0
  0
SPLINE
  5
200
100
AcDbEntity
  8
0
 62
7
100
AcDbSpline
 70
8
 71
3
 72
8
 73
4
 74
0
 40
0
 40
0
 40
0
 40
0
 40
1
 40
1
 40
1
 40
1
 10
511.401260
 20
101.214365
 30
0.0
 10
511.401260
 20
103.954050
 30
0.0
 10
513.622205
 20
106.174995
 30
0.0
 10
516.361890
 20
106.174995
 30
0.0
  0
SPLINE
  5
201
100
AcDbEntity
  8
0
 62
7
100
AcDbSpline
 70
8
 71
3
 72
8
 73
4
 74
0
 40
0
 40
0
 40
0
 40
0
 40
1
 40
1
 40
1
 40
1
 10
516.361890
 20
106.174995
 30
0.0
 10
519.101575
 20
106.174995
 30
0.0
 10
521.322520
 20
103.954050
 30
0.0
 10
521.322520
 20
101.214365
 30
0.0
  0
SPLINE
  5
202
100
AcDbEntity
  8
0
 62
7
100
AcDbSpline
 70
8
 71
3
 72
8
 73
4
 74
0
 40
0
 40
0
 40
0
 40
0
 40
1
 40
1
 40
1
 40
1
 10
375.338268
 20
-151.069100
 30
0.0
 10
375.338268
 20
-153.808785
 30
0.0
 10
373.117323
 20
-156.029730
 30
0.0
 10
370.377638
 20
-156.029730
 30
0.0
  0
SPLINE
  5
203
100
AcDbEntity
  8
0
 62
7
100
AcDbSpline
 70
8
 71
3
 72
8
 73
4
 74
0
 40
0
 40
0
 40
0
 40
0
 40
1
 40
1
 40
1
 40
1
 10
370.377638
 20
-156.029730
 30
0.0
 10
367.637953
 20
-156.029730
 30
0.0
 10
365.417008
 20
-153.808785
 30
0.0
 10
365.417008
 20
-151.069100
 30
0.0
  0
SPLINE
  5
204
100
AcDbEntity
  8
0
 62
7
100
AcDbSpline
 70
8
 71
3
 72
8
 73
4
 74
0
 40
0
 40
0
 40
0
 40
0
 40
1
 40
1
 40
1
 40
1
 10
365.417008
 20
-151.069100
 30
0.0
 10
365.417008
 20
-148.329415
 30
0.0
 10
367.637953
 20
-146.108470
 30
0.0
 10
370.377638
 20
-146.108470
 30
0.0
  0
SPLINE
  5
205
100
AcDbEntity
  8
0
 62
7
100
AcDbSpline
 70
8
 71
3
 72
8
 73
4
 74
0
 40
0
 40
0
 40
0
 40
0
 40
1
 40
1
 40
1
 40
1
 10
370.377638
 20
-146.108470
 30
0.0
 10
373.117323
 20
-146.108470
 30
0.0
 10
375.338268
 20
-148.329415
 30
0.0
 10
375.338268
 20
-151.069100
 30
0.0
  0
SPLINE
  5
206
100
AcDbEntity
  8
0
 62
7
100
AcDbSpline
 70
8
 71
3
 72
8
 73
4
 74
0
 40
0
 40
0
 40
0
 40
0
 40
1
 40
1
 40
1
 40
1
 10
375.338268
 20
-83.037604
 30
0.0
 10
375.338268
 20
-85.777289
 30
0.0
 10
373.117323
 20
-87.998233
 30
0.0
 10
370.377638
 20
-87.998233
 30
0.0
  0
SPLINE
  5
207
100
AcDbEntity
  8
0
 62
7
100
AcDbSpline
 70
8
 71
3
 72
8
 73
4
 74
0
 40
0
 40
0
 40
0
 40
0
 40
1
 40
1
 40
1
 40
1
 10
370.377638
 20
-87.998233
 30
0.0
 10
367.637953
 20
-87.998233
 30
0.0
 10
365.417008
 20
-85.777289
 30
0.0
 10
365.417008
 20
-83.037604
 30
0.0
  0
SPLINE
  5
208
100
AcDbEntity
  8
0
 62
7
100
AcDbSpline
 70
8
 71
3
 72
8
 73
4
 74
0
 40
0
 40
0
 40
0
 40
0
 40
1
 40
1
 40
1
 40
1
 10
365.417008
 20
-83.037604
 30
0.0
 10
365.417008
 20
-80.297919
 30
0.0
 10
367.637953
 20
-78.076974
 30
0.0
 10
370.377638
 20
-78.076974
 30
0.0
  0
SPLINE
  5
209
100
AcDbEntity
  8
0
 62
7
100
AcDbSpline
 70
8
 71
3
 72
8
 73
4
 74
0
 40
0
 40
0
 40
0
 40
0
 40
1
 40
1
 40
1
 40
1
 10
370.377638
 20
-78.076974
 30
0.0
 10
373.117323
 20
-78.076974
 30
0.0
 10
375.338268
 20
-80.297919
 30
0.0
 10
375.338268
 20
-83.037604
 30
0.0
  0
SPLINE
  5
20a
100
AcDbEntity
  8
0
 62
7
100
AcDbSpline
 70
8
 71
3
 72
8
 73
4
 74
0
 40
0
 40
0
 40
0
 40
0
 40
1
 40
1
 40
1
 40
1
 10
460.377638
 20
-83.037604
 30
0.0
 10
460.377638
 20
-85.777289
 30
0.0
 10
458.156693
 20
-87.998233
 30
0.0
 10
455.417008
 20
-87.998233
 30
0.0
  0
SPLINE
  5
20b
100
AcDbEntity
  8
0
 62
7
100
AcDbSpline
 70
8
 71
3
 72
8
 73
4
 74
0
 40
0
 40
0
 40
0
 40
0
 40
1
 40
1
 40
1
 40
1
 10
455.417008
 20
-87.998233
 30
0.0
 10
452.677323
 20
-87.998233
 30
0.0
 10
450.456378
 20
-85.777289
 30
0.0
 10
450.456378
 20
-83.037604
 30
0.0
  0
SPLINE
  5
20c
100
AcDbEntity
  8
0
 62
7
100
AcDbSpline
 70
8
 71
3
 72
8
 73
4
 74
0
 40
0
 40
0
 40
0
 40
0
 40
1
 40
1
 40
1
 40
1
 10
450.456378
 20
-83.037604
 30
0.0
 10
450.456378
 20
-80.297919
 30
0.0
 10
452.677323
 20
-78.076974
 30
0.0
 10
455.417008
 20
-78.076974
 30
0.0
  0
SPLINE
  5
20d
100
AcDbEntity
  8
0
 62
7
100
AcDbSpline
 70
8
 71
3
 72
8
 73
4
 74
0
 40
0
 40
0
 40
0
 40
0
 40
1
 40
1
 40
1
 40
1
 10
455.417008
 20
-78.076974
 30
0.0
 10
458.156693
 20
-78.076974
 30
0.0
 10
460.377638
 20
-80.297919
 30
0.0
 10
460.377638
 20
-83.037604
 30
0.0
  0
SPLINE
  5
20e
100
AcDbEntity
  8
0
 62
7
100
AcDbSpline
 70
8
 71
3
 72
8
 73
4
 74
0
 40
0
 40
0
 40
0
 40
0
 40
1
 40
1
 40
1
 40
1
 10
460.377638
 20
-151.069100
 30
0.0
 10
460.377638
 20
-153.808785
 30
0.0
 10
458.156693
 20
-156.029730
 30
0.0
 10
455.417008
 20
-156.029730
 30
0.0
  0
SPLINE
  5
20f
100
AcDbEntity
  8
0
 62
7
100
AcDbSpline
 70
8
 71
3
 72
8
 73
4
 74
0
 40
0
 40
0
 40
0
 40
0
 40
1
 40
1
 40
1
 40
1
 10
455.417008
 20
-156.029730
 30
0.0
 10
452.677323
 20
-156.029730
 30
0.0
 10
450.456378
 20
-153.808785
 30
0.0
 10
450.456378
 20
-151.069100
 30
0.0
  0
SPLINE
  5
210
100
AcDbEntity
  8
0
 62
7
100
AcDbSpline
 70
8
 71
3
 72
8
 73
4
 74
0
 40
0
 40
0
 40
0
 40
0
 40
1
 40
1
 40
1
 40
1
 10
450.456378
 20
-151.069100
 30
0.0
 10
450.456378
 20
-148.329415
 30
0.0
 10
452.677323
 20
-146.108470
 30
0.0
 10
455.417008
 20
-146.108470
 30
0.0
  0
SPLINE
  5
211
100
AcDbEntity
  8
0
 62
7
100
AcDbSpline
 70
8
 71
3
 72
8
 73
4
 74
0
 40
0
 40
0
 40
0
 40
0
 40
1
 40
1
 40
1
 40
1
 10
455.417008
 20
-146.108470
 30
0.0
 10
458.156693
 20
-146.108470
 30
0.0
 10
460.377638
 20
-148.329415
 30
0.0
 10
460.377638
 20
-151.069100
 30
0.0
  0
SPLINE
  5
212
100
AcDbEntity
  8
0
 62
7
100
AcDbSpline
 70
8
 71
3
 72
8
 73
4
 74
0
 40
0
 40
0
 40
0
 40
0
 40
1
 40
1
 40
1
 40
1
 10
531.243780
 20
136.640633
 30
0.0
 10
531.243780
 20
133.900948
 30
0.0
 10
529.022835
 20
131.680003
 30
0.0
 10
526.283150
 20
131.680003
 30
0.0
  0
SPLINE
  5
213
100
AcDbEntity
  8
0
 62
7
100
AcDbSpline
 70
8
 71
3
 72
8
 73
4
 74
0
 40
0
 40
0
 40
0
 40
0
 40
1
 40
1
 40
1
 40
1
 10
526.283150
 20
131.680003
 30
0.0
 10
523.543465
 20
131.680003
 30
0.0
 10
521.322520
 20
133.900948
 30
0.0
 10
521.322520
 20
136.640633
 30
0.0
  0
SPLINE
  5
214
100
AcDbEntity
  8
0
 62
7
100
AcDbSpline
 70
8
 71
3
 72
8
 73
4
 74
0
 40
0
 40
0
 40
0
 40
0
 40
1
 40
1
 40
1
 40
1
 10
521.322520
 20
136.640633
 30
0.0
 10
521.322520
 20
139.380318
 30
0.0
 10
523.543465
 20
141.601263
 30
0.0
 10
526.283150
 20
141.601263
 30
0.0
  0
SPLINE
  5
215
100
AcDbEntity
  8
0
 62
7
100
AcDbSpline
 70
8
 71
3
 72
8
 73
4
 74
0
 40
0
 40
0
 40
0
 40
0
 40
1
 40
1
 40
1
 40
1
 10
526.283150
 20
141.601263
 30
0.0
 10
529.022835
 20
141.601263
 30
0.0
 10
531.243780
 20
139.380318
 30
0.0
 10
531.243780
 20
136.640633
 30
0.0
  0
SPLINE
  5
216
100
AcDbEntity
  8
0
 62
7
100
AcDbSpline
 70
8
 71
3
 72
8
 73
4
 74
0
 40
0
 40
0
 40
0
 40
0
 40
1
 40
1
 40
1
 40
1
 10
304.472126
 20
136.640633
 30
0.0
 10
304.472126
 20
133.900948
 30
0.0
 10
302.251181
 20
131.680003
 30
0.0
 10
299.511496
 20
131.680003
 30
0.0
  0
SPLINE
  5
217
100
AcDbEntity
  8
0
 62
7
100
AcDbSpline
 70
8
 71
3
 72
8
 73
4
 74
0
 40
0
 40
0
 40
0
 40
0
 40
1
 40
1
 40
1
 40
1
 10
299.511496
 20
131.680003
 30
0.0
 10
296.771811
 20
131.680003
 30
0.0
 10
294.550866
 20
133.900948
 30
0.0
 10
294.550866
 20
136.640633
 30
0.0
  0
SPLINE
  5
218
100
AcDbEntity
  8
0
 62
7
100
AcDbSpline
 70
8
 71
3
 72
8
 73
4
 74
0
 40
0
 40
0
 40
0
 40
0
 40
1
 40
1
 40
1
 40
1
 10
294.550866
 20
136.640633
 30
0.0
 10
294.550866
 20
139.380318
 30
0.0
 10
296.771811
 20
141.601263
 30
0.0
 10
299.511496
 20
141.601263
 30
0.0
  0
SPLINE
  5
219
100
AcDbEntity
  8
0
 62
7
100
AcDbSpline
 70
8
 71
3
 72
8
 73
4
 74
0
 40
0
 40
0
 40
0
 40
0
 40
1
 40
1
 40
1
 40
1
 10
299.511496
 20
141.601263
 30
0.0
 10
302.251181
 20
141.601263
 30
0.0
 10
304.472126
 20
139.380318
 30
0.0
 10
304.472126
 20
136.640633
 30
0.0
  0
SPLINE
  5
21a
100
AcDbEntity
  8
0
 62
7
100
AcDbSpline
 70
8
 71
3
 72
8
 73
4
 74
0
 40
0
 40
0
 40
0
 40
0
 40
1
 40
1
 40
1
 40
1
 10
314.393386
 20
101.214365
 30
0.0
 10
314.393386
 20
98.474680
 30
0.0
 10
312.172441
 20
96.253735
 30
0.0
 10
309.432756
 20
96.253735
 30
0.0
  0
SPLINE
  5
21b
100
AcDbEntity
  8
0
 62
7
100
AcDbSpline
 70
8
 71
3
 72
8
 73
4
 74
0
 40
0
 40
0
 40
0
 40
0
 40
1
 40
1
 40
1
 40
1
 10
309.432756
 20
96.253735
 30
0.0
 10
306.693071
 20
96.253735
 30
0.0
 10
304.472126
 20
98.474680
 30
0.0
 10
304.472126
 20
101.214365
 30
0.0
  0
SPLINE
  5
21c
100
AcDbEntity
  8
0
 62
7
100
AcDbSpline
 70
8
 71
3
 72
8
 73
4
 74
0
 40
0
 40
0
 40
0
 40
0
 40
1
 40
1
 40
1
 40
1
 10
304.472126
 20
101.214365
 30
0.0
 10
304.472126
 20
103.954050
 30
0.0
 10
306.693071
 20
106.174995
 30
0.0
 10
309.432756
 20
106.174995
 30
0.0
  0
SPLINE
  5
21d
100
AcDbEntity
  8
0
 62
7
100
AcDbSpline
 70
8
 71
3
 72
8
 73
4
 74
0
 40
0
 40
0
 40
0
 40
0
 40
1
 40
1
 40
1
 40
1
 10
309.432756
 20
106.174995
 30
0.0
 10
312.172441
 20
106.174995
 30
0.0
 10
314.393386
 20
103.954050
 30
0.0
 10
314.393386
 20
101.214365
 30
0.0
  0
SPLINE
  5
21e
100
AcDbEntity
  8
0
 62
7
100
AcDbSpline
 70
8
 71
3
 72
8
 73
4
 74
0
 40
0
 40
0
 40
0
 40
0
 40
1
 40
1
 40
1
 40
1
 10
288.881575
 20
101.214365
 30
0.0
 10
288.881575
 20
98.474680
 30
0.0
 10
286.660630
 20
96.253735
 30
0.0
 10
283.920945
 20
96.253735
 30
0.0
  0
SPLINE
  5
21f
100
AcDbEntity
  8
0
 62
7
100
AcDbSpline
 70
8
 71
3
 72
8
 73
4
 74
0
 40
0
 40
0
 40
0
 40
0
 40
1
 40
1
 40
1
 40
1
 10
283.920945
 20
96.253735
 30
0.0
 10
281.181260
 20
96.253735
 30
0.0
 10
278.960315
 20
98.474680
 30
0.0
 10
278.960315
 20
101.214365
 30
0.0
  0
SPLINE
  5
220
100
AcDbEntity
  8
0
 62
7
100
AcDbSpline
 70
8
 71
3
 72
8
 73
4
 74
0
 40
0
 40
0
 40
0
 40
0
 40
1
 40
1
 40
1
 40
1
 10
278.960315
 20
101.214365
 30
0.0
 10
278.960315
 20
103.954050
 30
0.0
 10
281.181260
 20
106.174995
 30
0.0
 10
283.920945
 20
106.174995
 30
0.0
  0
SPLINE
  5
221
100
AcDbEntity
  8
0
 62
7
100
AcDbSpline
 70
8
 71
3
 72
8
 73
4
 74
0
 40
0
 40
0
 40
0
 40
0
 40
1
 40
1
 40
1
 40
1
 10
283.920945
 20
106.174995
 30
0.0
 10
286.660630
 20
106.174995
 30
0.0
 10
288.881575
 20
103.954050
 30
0.0
 10
288.881575
 20
101.214365
 30
0.0
  0
SPLINE
  5
222
100
AcDbEntity
  8
0
 62
7
100
AcDbSpline
 70
8
 71
3
 72
8
 73
4
 74
0
 40
0
 40
0
 40
0
 40
0
 40
1
 40
1
 40
1
 40
1
 10
276.834331
 20
-32.013982
 30
0.0
 10
271.354961
 20
-32.013982
 30
0.0
 10
266.913071
 20
-27.572092
 30
0.0
 10
266.913071
 20
-22.092722
 30
0.0
  0
SPLINE
  5
223
100
AcDbEntity
  8
0
 62
7
100
AcDbSpline
 70
8
 71
3
 72
8
 73
4
 74
0
 40
0
 40
0
 40
0
 40
0
 40
1
 40
1
 40
1
 40
1
 10
266.913071
 20
-22.092722
 30
0.0
 10
266.913071
 20
-16.613352
 30
0.0
 10
271.354961
 20
-12.171462
 30
0.0
 10
276.834331
 20
-12.171462
 30
0.0
  0
LWPOLYLINE
  5
224
100
AcDbEntity
  8
0
 62
7
100
AcDbPolyline
 90
2
 70
0
 10
506.440630
 20
-32.013982
 30
0.0
 10
548.960315
 20
-32.013982
 30
0.0
  0
SPLINE
  5
225
100
AcDbEntity
  8
0
 62
7
100
AcDbSpline
 70
8
 71
3
 72
8
 73
4
 74
0
 40
0
 40
0
 40
0
 40
0
 40
1
 40
1
 40
1
 40
1
 10
319.354016
 20
-12.171462
 30
0.0
 10
324.833386
 20
-12.171462
 30
0.0
 10
329.275276
 20
-16.613352
 30
0.0
 10
329.275276
 20
-22.092722
 30
0.0
  0
SPLINE
  5
226
100
AcDbEntity
  8
0
 62
7
100
AcDbSpline
 70
8
 71
3
 72
8
 73
4
 74
0
 40
0
 40
0
 40
0
 40
0
 40
1
 40
1
 40
1
 40
1
 10
329.275276
 20
-22.092722
 30
0.0
 10
329.275276
 20
-27.572092
 30
0.0
 10
324.833386
 20
-32.013982
 30
0.0
 10
319.354016
 20
-32.013982
 30
0.0
  0
LWPOLYLINE
  5
227
100
AcDbEntity
  8
0
 62
7
100
AcDbPolyline
 90
2
 70
0
 10
276.834331
 20
-12.171462
 30
0.0
 10
319.354016
 20
-12.171462
 30
0.0
  0
SPLINE
  5
228
100
AcDbEntity
  8
0
 62
7
100
AcDbSpline
 70
8
 71
3
 72
8
 73
4
 74
0
 40
0
 40
0
 40
0
 40
0
 40
1
 40
1
 40
1
 40
1
 10
314.393386
 20
2.001767
 30
0.0
 10
314.393386
 20
-0.737919
 30
0.0
 10
312.172441
 20
-2.958863
 30
0.0
 10
309.432756
 20
-2.958863
 30
0.0
  0
SPLINE
  5
229
100
AcDbEntity
  8
0
 62
7
100
AcDbSpline
 70
8
 71
3
 72
8
 73
4
 74
0
 40
0
 40
0
 40
0
 40
0
 40
1
 40
1
 40
1
 40
1
 10
309.432756
 20
-2.958863
 30
0.0
 10
306.693071
 20
-2.958863
 30
0.0
 10
304.472126
 20
-0.737919
 30
0.0
 10
304.472126
 20
2.001767
 30
0.0
  0
SPLINE
  5
22a
100
AcDbEntity
  8
0
 62
7
100
AcDbSpline
 70
8
 71
3
 72
8
 73
4
 74
0
 40
0
 40
0
 40
0
 40
0
 40
1
 40
1
 40
1
 40
1
 10
304.472126
 20
2.001767
 30
0.0
 10
304.472126
 20
4.741452
 30
0.0
 10
306.693071
 20
6.962396
 30
0.0
 10
309.432756
 20
6.962396
 30
0.0
  0
SPLINE
  5
22b
100
AcDbEntity
  8
0
 62
7
100
AcDbSpline
 70
8
 71
3
 72
8
 73
4
 74
0
 40
0
 40
0
 40
0
 40
0
 40
1
 40
1
 40
1
 40
1
 10
309.432756
 20
6.962396
 30
0.0
 10
312.172441
 20
6.962396
 30
0.0
 10
314.393386
 20
4.741452
 30
0.0
 10
314.393386
 20
2.001767
 30
0.0
  0
SPLINE
  5
22c
100
AcDbEntity
  8
0
 62
7
100
AcDbSpline
 70
8
 71
3
 72
8
 73
4
 74
0
 40
0
 40
0
 40
0
 40
0
 40
1
 40
1
 40
1
 40
1
 10
288.881575
 20
2.001767
 30
0.0
 10
288.881575
 20
-0.737919
 30
0.0
 10
286.660630
 20
-2.958863
 30
0.0
 10
283.920945
 20
-2.958863
 30
0.0
  0
SPLINE
  5
22d
100
AcDbEntity
  8
0
 62
7
100
AcDbSpline
 70
8
 71
3
 72
8
 73
4
 74
0
 40
0
 40
0
 40
0
 40
0
 40
1
 40
1
 40
1
 40
1
 10
283.920945
 20
-2.958863
 30
0.0
 10
281.181260
 20
-2.958863
 30
0.0
 10
278.960315
 20
-0.737919
 30
0.0
 10
278.960315
 20
2.001767
 30
0.0
  0
SPLINE
  5
22e
100
AcDbEntity
  8
0
 62
7
100
AcDbSpline
 70
8
 71
3
 72
8
 73
4
 74
0
 40
0
 40
0
 40
0
 40
0
 40
1
 40
1
 40
1
 40
1
 10
278.960315
 20
2.001767
 30
0.0
 10
278.960315
 20
4.741452
 30
0.0
 10
281.181260
 20
6.962396
 30
0.0
 10
283.920945
 20
6.962396
 30
0.0
  0
SPLINE
  5
22f
100
AcDbEntity
  8
0
 62
7
100
AcDbSpline
 70
8
 71
3
 72
8
 73
4
 74
0
 40
0
 40
0
 40
0
 40
0
 40
1
 40
1
 40
1
 40
1
 10
283.920945
 20
6.962396
 30
0.0
 10
286.660630
 20
6.962396
 30
0.0
 10
288.881575
 20
4.741452
 30
0.0
 10
288.881575
 20
2.001767
 30
0.0
  0
SPLINE
  5
230
100
AcDbEntity
  8
0
 62
7
100
AcDbSpline
 70
8
 71
3
 72
8
 73
4
 74
0
 40
0
 40
0
 40
0
 40
0
 40
1
 40
1
 40
1
 40
1
 10
276.125669
 20
-134.291682
 30
0.0
 10
276.125669
 20
-137.031367
 30
0.0
 10
273.904724
 20
-139.252312
 30
0.0
 10
271.165039
 20
-139.252312
 30
0.0
  0
SPLINE
  5
231
100
AcDbEntity
  8
0
 62
7
100
AcDbSpline
 70
8
 71
3
 72
8
 73
4
 74
0
 40
0
 40
0
 40
0
 40
0
 40
1
 40
1
 40
1
 40
1
 10
271.165039
 20
-139.252312
 30
0.0
 10
268.425354
 20
-139.252312
 30
0.0
 10
266.204409
 20
-137.031367
 30
0.0
 10
266.204409
 20
-134.291682
 30
0.0
  0
SPLINE
  5
232
100
AcDbEntity
  8
0
 62
7
100
AcDbSpline
 70
8
 71
3
 72
8
 73
4
 74
0
 40
0
 40
0
 40
0
 40
0
 40
1
 40
1
 40
1
 40
1
 10
266.204409
 20
-134.291682
 30
0.0
 10
266.204409
 20
-131.551997
 30
0.0
 10
268.425354
 20
-129.331052
 30
0.0
 10
271.165039
 20
-129.331052
 30
0.0
  0
SPLINE
  5
233
100
AcDbEntity
  8
0
 62
7
100
AcDbSpline
 70
8
 71
3
 72
8
 73
4
 74
0
 40
0
 40
0
 40
0
 40
0
 40
1
 40
1
 40
1
 40
1
 10
271.165039
 20
-129.331052
 30
0.0
 10
273.904724
 20
-129.331052
 30
0.0
 10
276.125669
 20
-131.551997
 30
0.0
 10
276.125669
 20
-134.291682
 30
0.0
  0
LWPOLYLINE
  5
234
100
AcDbEntity
  8
0
 62
7
100
AcDbPolyline
 90
2
 70
0
 10
276.834331
 20
-32.013982
 30
0.0
 10
319.354016
 20
-32.013982
 30
0.0
  0
LWPOLYLINE
  5
235
100
AcDbEntity
  8
0
 62
7
100
AcDbPolyline
 90
2
 70
0
 10
412.897323
 20
-24.076974
 30
0.0
 10
412.897323
 20
-0.265950
 30
0.0
  0
LWPOLYLINE
  5
236
100
AcDbEntity
  8
0
 62
7
100
AcDbPolyline
 90
2
 70
0
 10
424.802835
 20
-12.171462
 30
0.0
 10
400.991811
 20
-12.171462
 30
0.0
  0
LWPOLYLINE
  5
237
100
AcDbEntity
  8
0
 62
7
100
AcDbPolyline
 90
2
 70
0
 10
242.819433
 20
-22.659651
 30
0.0
 10
242.819433
 20
1.151373
 30
0.0
  0
LWPOLYLINE
  5
238
100
AcDbEntity
  8
0
 62
7
100
AcDbPolyline
 90
2
 70
0
 10
254.724945
 20
-10.754139
 30
0.0
 10
230.913921
 20
-10.754139
 30
0.0
  0
LWPOLYLINE
  5
239
100
AcDbEntity
  8
0
 62
7
100
AcDbPolyline
 90
2
 70
0
 10
582.976063
 20
-22.659651
 30
0.0
 10
582.976063
 20
1.151373
 30
0.0
  0
LWPOLYLINE
  5
23a
100
AcDbEntity
  8
0
 62
7
100
AcDbPolyline
 90
2
 70
0
 10
594.881575
 20
-10.754139
 30
0.0
 10
571.070551
 20
-10.754139
 30
0.0
  0
LWPOLYLINE
  5
23b
100
AcDbEntity
  8
0
 62
7
100
AcDbPolyline
 90
2
 70
0
 10
541.873701
 20
89.308853
 30
0.0
 10
541.873701
 20
113.119877
 30
0.0
  0
LWPOLYLINE
  5
23c
100
AcDbEntity
  8
0
 62
7
100
AcDbPolyline
 90
2
 70
0
 10
553.779213
 20
101.214365
 30
0.0
 10
529.968189
 20
101.214365
 30
0.0
  0
LWPOLYLINE
  5
23d
100
AcDbEntity
  8
0
 62
7
100
AcDbPolyline
 90
2
 70
0
 10
541.873701
 20
-9.903745
 30
0.0
 10
541.873701
 20
13.907278
 30
0.0
  0
LWPOLYLINE
  5
23e
100
AcDbEntity
  8
0
 62
7
100
AcDbPolyline
 90
2
 70
0
 10
553.779213
 20
2.001767
 30
0.0
 10
529.968189
 20
2.001767
 30
0.0
  0
LWPOLYLINE
  5
23f
100
AcDbEntity
  8
0
 62
7
100
AcDbPolyline
 90
2
 70
0
 10
516.361890
 20
-9.903745
 30
0.0
 10
516.361890
 20
13.907278
 30
0.0
  0
LWPOLYLINE
  5
240
100
AcDbEntity
  8
0
 62
7
100
AcDbPolyline
 90
2
 70
0
 10
528.267402
 20
2.001767
 30
0.0
 10
504.456378
 20
2.001767
 30
0.0
  0
LWPOLYLINE
  5
241
100
AcDbEntity
  8
0
 62
7
100
AcDbPolyline
 90
2
 70
0
 10
554.629606
 20
-146.196627
 30
0.0
 10
554.629606
 20
-122.385604
 30
0.0
  0
LWPOLYLINE
  5
242
100
AcDbEntity
  8
0
 62
7
100
AcDbPolyline
 90
2
 70
0
 10
566.535118
 20
-134.291115
 30
0.0
 10
542.724094
 20
-134.291115
 30
0.0
  0
LWPOLYLINE
  5
243
100
AcDbEntity
  8
0
 62
7
100
AcDbPolyline
 90
2
 70
0
 10
506.440630
 20
-33.998233
 30
0.0
 10
506.440630
 20
-10.187210
 30
0.0
  0
LWPOLYLINE
  5
244
100
AcDbEntity
  8
0
 62
7
100
AcDbPolyline
 90
2
 70
0
 10
518.346142
 20
-22.092722
 30
0.0
 10
494.535118
 20
-22.092722
 30
0.0
  0
LWPOLYLINE
  5
245
100
AcDbEntity
  8
0
 62
7
100
AcDbPolyline
 90
2
 70
0
 10
548.960315
 20
-33.998233
 30
0.0
 10
548.960315
 20
-10.187210
 30
0.0
  0
LWPOLYLINE
  5
246
100
AcDbEntity
  8
0
 62
7
100
AcDbPolyline
 90
2
 70
0
 10
560.865827
 20
-22.092722
 30
0.0
 10
537.054803
 20
-22.092722
 30
0.0
  0
LWPOLYLINE
  5
247
100
AcDbEntity
  8
0
 62
7
100
AcDbPolyline
 90
2
 70
0
 10
516.361890
 20
89.308853
 30
0.0
 10
516.361890
 20
113.119877
 30
0.0
  0
LWPOLYLINE
  5
248
100
AcDbEntity
  8
0
 62
7
100
AcDbPolyline
 90
2
 70
0
 10
528.267402
 20
101.214365
 30
0.0
 10
504.456378
 20
101.214365
 30
0.0
  0
LWPOLYLINE
  5
249
100
AcDbEntity
  8
0
 62
7
100
AcDbPolyline
 90
2
 70
0
 10
370.377638
 20
-162.974895
 30
0.0
 10
370.377638
 20
-139.163871
 30
0.0
  0
LWPOLYLINE
  5
24a
100
AcDbEntity
  8
0
 62
7
100
AcDbPolyline
 90
2
 70
0
 10
382.283150
 20
-151.069383
 30
0.0
 10
358.472126
 20
-151.069383
 30
0.0
  0
LWPOLYLINE
  5
24b
100
AcDbEntity
  8
0
 62
7
100
AcDbPolyline
 90
2
 70
0
 10
370.377638
 20
-94.943399
 30
0.0
 10
370.377638
 20
-71.132375
 30
0.0
  0
LWPOLYLINE
  5
24c
100
AcDbEntity
  8
0
 62
7
100
AcDbPolyline
 90
2
 70
0
 10
382.283150
 20
-83.037887
 30
0.0
 10
358.472126
 20
-83.037887
 30
0.0
  0
LWPOLYLINE
  5
24d
100
AcDbEntity
  8
0
 62
7
100
AcDbPolyline
 90
2
 70
0
 10
455.417008
 20
-94.943399
 30
0.0
 10
455.417008
 20
-71.132375
 30
0.0
  0
LWPOLYLINE
  5
24e
100
AcDbEntity
  8
0
 62
7
100
AcDbPolyline
 90
2
 70
0
 10
467.322520
 20
-83.037887
 30
0.0
 10
443.511496
 20
-83.037887
 30
0.0
  0
LWPOLYLINE
  5
24f
100
AcDbEntity
  8
0
 62
7
100
AcDbPolyline
 90
2
 70
0
 10
455.417008
 20
-162.974895
 30
0.0
 10
455.417008
 20
-139.163871
 30
0.0
  0
LWPOLYLINE
  5
250
100
AcDbEntity
  8
0
 62
7
100
AcDbPolyline
 90
2
 70
0
 10
467.322520
 20
-151.069383
 30
0.0
 10
443.511496
 20
-151.069383
 30
0.0
  0
LWPOLYLINE
  5
251
100
AcDbEntity
  8
0
 62
7
100
AcDbPolyline
 90
2
 70
0
 10
526.283150
 20
124.735404
 30
0.0
 10
526.283150
 20
148.546428
 30
0.0
  0
LWPOLYLINE
  5
252
100
AcDbEntity
  8
0
 62
7
100
AcDbPolyline
 90
2
 70
0
 10
538.188661
 20
136.640916
 30
0.0
 10
514.377638
 20
136.640916
 30
0.0
  0
LWPOLYLINE
  5
253
100
AcDbEntity
  8
0
 62
7
100
AcDbPolyline
 90
2
 70
0
 10
299.511496
 20
124.735404
 30
0.0
 10
299.511496
 20
148.546428
 30
0.0
  0
LWPOLYLINE
  5
254
100
AcDbEntity
  8
0
 62
7
100
AcDbPolyline
 90
2
 70
0
 10
311.417008
 20
136.640916
 30
0.0
 10
287.605984
 20
136.640916
 30
0.0
  0
LWPOLYLINE
  5
255
100
AcDbEntity
  8
0
 62
7
100
AcDbPolyline
 90
2
 70
0
 10
309.432756
 20
89.308853
 30
0.0
 10
309.432756
 20
113.119877
 30
0.0
  0
LWPOLYLINE
  5
256
100
AcDbEntity
  8
0
 62
7
100
AcDbPolyline
 90
2
 70
0
 10
321.338268
 20
101.214365
 30
0.0
 10
297.527244
 20
101.214365
 30
0.0
  0
LWPOLYLINE
  5
257
100
AcDbEntity
  8
0
 62
7
100
AcDbPolyline
 90
2
 70
0
 10
283.920945
 20
89.308853
 30
0.0
 10
283.920945
 20
113.119877
 30
0.0
  0
LWPOLYLINE
  5
258
100
AcDbEntity
  8
0
 62
7
100
AcDbPolyline
 90
2
 70
0
 10
295.826457
 20
101.214365
 30
0.0
 10
272.015433
 20
101.214365
 30
0.0
  0
LWPOLYLINE
  5
259
100
AcDbEntity
  8
0
 62
7
100
AcDbPolyline
 90
2
 70
0
 10
276.835181
 20
-33.998233
 30
0.0
 10
276.835181
 20
-10.187210
 30
0.0
  0
LWPOLYLINE
  5
25a
100
AcDbEntity
  8
0
 62
7
100
AcDbPolyline
 90
2
 70
0
 10
288.740693
 20
-22.092722
 30
0.0
 10
264.929669
 20
-22.092722
 30
0.0
  0
LWPOLYLINE
  5
25b
100
AcDbEntity
  8
0
 62
7
100
AcDbPolyline
 90
2
 70
0
 10
319.354016
 20
-33.998233
 30
0.0
 10
319.354016
 20
-10.187210
 30
0.0
  0
LWPOLYLINE
  5
25c
100
AcDbEntity
  8
0
 62
7
100
AcDbPolyline
 90
2
 70
0
 10
331.259528
 20
-22.092722
 30
0.0
 10
307.448504
 20
-22.092722
 30
0.0
  0
LWPOLYLINE
  5
25d
100
AcDbEntity
  8
0
 62
7
100
AcDbPolyline
 90
2
 70
0
 10
309.432756
 20
-9.903745
 30
0.0
 10
309.432756
 20
13.907278
 30
0.0
  0
LWPOLYLINE
  5
25e
100
AcDbEntity
  8
0
 62
7
100
AcDbPolyline
 90
2
 70
0
 10
321.338268
 20
2.001767
 30
0.0
 10
297.527244
 20
2.001767
 30
0.0
  0
LWPOLYLINE
  5
25f
100
AcDbEntity
  8
0
 62
7
100
AcDbPolyline
 90
2
 70
0
 10
283.920945
 20
-9.903745
 30
0.0
 10
283.920945
 20
13.907278
 30
0.0
  0
LWPOLYLINE
  5
260
100
AcDbEntity
  8
0
 62
7
100
AcDbPolyline
 90
2
 70
0
 10
295.826457
 20
2.001767
 30
0.0
 10
272.015433
 20
2.001767
 30
0.0
  0
LWPOLYLINE
  5
261
100
AcDbEntity
  8
0
 62
7
100
AcDbPolyline
 90
2
 70
0
 10
271.165890
 20
-146.196627
 30
0.0
 10
271.165890
 20
-122.385604
 30
0.0
  0
LWPOLYLINE
  5
262
100
AcDbEntity
  8
0
 62
7
100
AcDbPolyline
 90
2
 70
0
 10
283.071402
 20
-134.291115
 30
0.0
 10
259.260378
 20
-134.291115
 30
0.0
  0
ENDSEC
  0
SECTION
  2
OBJECTS
  0
DICTIONARY
  5
C
330
0
100
AcDbDictionary
  3
ACAD_GROUP
350
D
  3
ACAD_MLINESTYLE
350
17
  0
DICTIONARY
  5
D
330
C
100
AcDbDictionary
  0
DICTIONARY
  5
1A
330
C
100
AcDbDictionary
  0
DICTIONARY
  5
17
330
C
100
AcDbDictionary
  3
STANDARD
350
18
  0
DICTIONARY
  5
19
330
C
100
AcDbDictionary
  0
ENDSEC
  0
EOF
